<?xml version="1.0" encoding="UTF-8"?>
<svg id="Camada_2" data-name="Camada 2" xmlns="http://www.w3.org/2000/svg" viewBox="0 0 524.64 223.84">
  <defs>
    <style>
      .cls-1 {
        font-family: Montserrat-Light, Montserrat;
        font-size: 20px;
        font-variation-settings: 'wght' 300;
        font-weight: 300;
      }

      .cls-1, .cls-2 {
        fill: #2f2d7e;
      }

      .cls-3 {
        letter-spacing: .15em;
      }

      .cls-4 {
        letter-spacing: .14em;
      }
    </style>
  </defs>
  <g id="Camada_1-2" data-name="Camada 1">
    <g>
      <g>
        <path class="cls-2" d="M419.18,113.59v-5.22h18.19c.09,1.88,.24,3.5,.24,5.12,.01,18.81-.12,37.62,.09,56.42,.04,4.02-1.15,5.4-5.07,4.98-2.63-.29-5.33-.23-7.98-.03-3.92,.3-6.95-.09-4.91-6.51-8.1,7.19-16.5,8.85-25.52,7.45-7.66-1.18-14.05-5.01-19.16-10.78-10.68-12.07-11.18-32.58-1.24-45.3,10.99-14.06,26.42-16.18,45.37-6.12Zm-17.31,9.54c-10.09,.08-17.14,7.74-17.13,18.61,.01,10.48,7.69,18.52,17.52,18.35,10.27-.18,17.44-7.77,17.41-18.44-.03-10.96-7.38-18.6-17.81-18.52Z"/>
        <path class="cls-2" d="M454.09,108.24h17.74c.33,1.51,.63,2.92,1.01,4.67,.73-.42,1.41-.72,2.01-1.15,12.67-9.11,30.3-5.21,37.11,8.42,1.38,2.76,2.4,6.01,2.45,9.05,.25,14.95,.11,29.91,.11,45.21h-17.9c0-11.17,.06-22.27-.04-33.36-.03-3.14-.2-6.34-.83-9.41-1.26-6.04-3.98-8.39-9.23-8.63-6.94-.31-11.21,2.03-12.91,7.74-.89,2.97-1.19,6.21-1.23,9.33-.14,11.3-.05,22.59-.05,34.25h-18.25V108.24Z"/>
        <path class="cls-2" d="M278,116.61c-3.09,4.31-5.98,8.33-9.06,12.63-2.78-1.48-5.24-3.45-8.01-4.1-4.43-1.04-9.07-1.62-13.6-1.49-1.59,.05-3.11,2.78-4.66,4.28,1.53,1.35,2.86,3.37,4.63,3.9,3.96,1.19,8.18,1.44,12.21,2.43,3.36,.82,6.74,1.86,9.87,3.32,7.84,3.65,11.7,10.32,11.09,18.41-.68,8.96-6.16,15.73-14.6,18.2-15.69,4.6-29.77,1.3-43.22-8.52,3.03-4.27,5.87-8.26,8.47-11.92,6.1,2.06,11.78,4.33,17.65,5.8,2.75,.69,6.01,.29,8.79-.49,1.68-.47,2.88-2.63,4.3-4.04-1.41-1.39-2.59-3.55-4.27-4.05-6.35-1.91-12.9-3.1-19.28-4.9-8.98-2.54-14.49-9.55-14.56-18-.08-8.92,5.15-16.14,14.21-18.84,14.42-4.3,27.84-2.62,40.04,7.38Z"/>
        <path class="cls-2" d="M357.14,126.51c-2.05,.9-3.91,1.61-5.67,2.51-5.75,2.92-10.5,4.24-15.75-2.15-4.38-5.34-12.69-4.89-18.9-1.09-6.24,3.82-9.47,11.6-7.95,19.57,1.37,7.15,5.43,12.02,12.57,14.02,7.14,2,13.3,0,17.99-5.45,2.15-2.5,3.84-3.03,6.7-1.77,3.6,1.58,7.33,2.85,11,4.25-5.86,14.56-21.92,22.62-37.98,19.37-16.88-3.41-28.61-17.46-28.56-34.18,.05-16.71,11.76-30.9,28.06-34.01,15.85-3.03,33.21,5.32,38.49,18.92Z"/>
      </g>
      <g>
        <path class="cls-2" d="M305.01,92.37V26.38h17.44c.24,1.32,.5,2.72,.82,4.5,13.19-8.23,25.83-8.52,36.27,2,6.52-2.7,12.17-6.46,18.22-7.28,18.45-2.51,29.41,6.92,30.49,26,.71,12.63,.24,25.32,.04,37.99-.02,1.09-1.93,3-3.07,3.08-4.79,.35-9.62,.15-15.24,.15,0-2.31,0-4.21,0-6.11,0-10.67,.07-21.33-.04-32-.09-9.57-3.01-13.4-10.13-13.71-8.31-.36-13.49,4.28-13.82,13.48-.41,11.48-.14,22.99-.17,34.49,0,.99-.1,1.98-.18,3.38h-17.91c0-6.6,.05-13.2-.01-19.8-.06-7.16,.2-14.36-.46-21.46-.66-7.08-4.22-9.98-10.64-10.09-6.77-.12-11.91,3.6-12.78,10.09-.72,5.42-.66,10.96-.73,16.44-.11,8.14-.03,16.29-.03,24.86h-18.06Z"/>
        <path class="cls-2" d="M220.53,59.66c.14-20.39,14.99-34.71,35.79-34.53,19.21,.17,34.67,15.64,34.54,34.55-.13,19.99-15.43,34.63-35.99,34.42-19.61-.19-34.48-15.11-34.35-34.45Zm52.26-.05c-.03-10.83-7.24-18.49-17.36-18.46-9.89,.03-17.59,8.09-17.67,18.47-.07,10.11,7.92,18.5,17.64,18.51,9.99,.01,17.42-7.91,17.39-18.52Z"/>
        <path class="cls-2" d="M443.62,92.5h-17.83V26.51h17.56c.19,1.35,.38,2.76,.6,4.3,.47-.14,.99-.17,1.36-.42,18.67-12.52,38.86-3.85,40.82,18.4,1.27,14.33,.24,28.86,.24,43.65h-18.44c0-7.82,.02-15.28,0-22.74-.02-5.83,.05-11.66-.16-17.49-.26-6.92-3.16-10.63-8.36-11.19-7.62-.82-13.35,2.59-14.98,9.23-.62,2.55-.76,5.27-.78,7.91-.08,11.3-.03,22.6-.03,34.34Z"/>
        <path class="cls-2" d="M522.12,92.54h-18.11V26.51h18.11V92.54Z"/>
        <path class="cls-2" d="M522.78,9.98c-.05,5.55-3.77,9.19-9.42,9.21-5.77,.02-10.22-4.35-10.05-9.88,.16-5.31,4.66-9.43,10.15-9.31,5.65,.12,9.38,4.12,9.33,9.98Z"/>
      </g>
      <text class="cls-1" transform="translate(224.83 213.41)"><tspan class="cls-3" x="0" y="0">MA</tspan><tspan class="cls-4" x="39.22" y="0">PP</tspan><tspan class="cls-3" x="73.42" y="0">ING THE UNSEEN.</tspan></text>
      <g>
        <path class="cls-2" d="M95.11,113.58c-.2,.21-.44,.29-.73,.3-1.14,.03-2.31-.05-3.42,.16-1.21,.23-2.4,.29-3.61,.24,.52-.52,1.18-.2,1.78-.29,.37-.06,.9,.16,.8-.58-.02-.18,.24-.31,.43-.37,.95-.26,1.67-.98,2.63-1.22,.36-.09,.49-.47,.44-.78-.06-.32-.41-.18-.64-.21-.17-.02-.35-.02-.52-.02,.3-.11,.6-.32,.89-.3,2.35,.13,4.65-.45,6.99-.51,2.01-.05,4.04-.22,6.01-.5,2.59-.37,5.2-.18,7.78-.74,1.28-.28,2.63-.09,3.98-.36,1.75-.35,3.59-.04,5.39-.46,1.38-.32,2.84-.12,4.29-.32,1.97-.28,4.01-.14,6.01-.43,.93-.14,1.96,.15,2.84-.11,2.04-.61,4.16-.09,6.22-.69,1.32-.38,2.78,.05,4.21-.31,1.22-.31,2.56-.03,3.85-.31,1.1-.24,2.24-.08,3.39-.31,1.61-.32,3.29-.06,4.96-.43,1.5-.34,3.11-.15,4.68-.3,2.09-.2,4.19-.33,6.27-.71,1.21-.22,2.43-.37,3.63-.64,.84-.19,1.67-.39,2.51-.58,2.44-.56,4.86-1.16,6.72-2.94,1.67-1.6,2.3-3.68,1.33-5.85-.61-1.36-1.51-2.51-2.53-3.61-1.44-1.56-2.88-3.12-4.34-4.65-3.09-3.25-6.21-6.46-9.31-9.7-1.74-1.82-3.5-3.62-5.17-5.52-1.32-1.5-2.8-2.86-4.18-4.31-2.05-2.15-4.1-4.31-6.11-6.5-1.09-1.2-2.32-2.27-3.29-3.58,.14-.06,.28-.11,.41-.17,.31-.12,.61-.26,.69-.61,.1-.43-.33-.43-.53-.6-.27-.23-.56-.45-.45-.86,.08-.31,.15-.6-.27-.71-.36-.09-.71-.05-.92,.29-.21,.33-.39,.69-.58,1.04-.97-.96-1.85-2.01-2.8-2.99-3.09-3.22-6.11-6.51-9.16-9.78-.19-.2-.39-.31-.68-.38-1.18-.3-2.38-.17-3.57-.15-.44,0-.97,.14-1.31,.56-.85,1.03-1.69,2.06-2.48,3.12-.85,1.13-1.75,2.22-2.6,3.34-.8,1.06-1.64,2.1-2.49,3.13-.86,1.04-1.64,2.15-2.54,3.16-.08,.09-.21,.16-.27,.26-.81,1.43-2.03,2.54-2.98,3.86-1.16,1.61-2.44,3.13-3.69,4.68-1.21,1.49-2.39,3.01-3.68,4.44-.61,.68-1.27,1.36-1.77,2.11-.89,1.33-1.97,2.49-3.03,3.64-1.35,1.47-2.87,2.81-4.38,4.14-1.37,1.21-2.83,2.37-3.96,3.9-1.48,1.99-3.55,3.29-6.04,3.8-.02-1.02-.7-1.54-1.5-1.97-.15-.08-.36-.12-.29-.36,.05-.16,.22-.26,.36-.22,.92,.27,1.27-.45,1.74-.97,0,0,.06,0,.06,0,.08-.05,.16-.09,.24-.14,1.6-.75,2.72-2.01,3.8-3.37,.52-.65,1.05-1.4,1.94-1.68,.15-.05,.28-.19,.41-.31,1.74-1.69,3.53-3.34,5.21-5.1,1.17-1.23,2.16-2.65,3.29-3.92,.61-.69,1.11-1.45,1.7-2.15,1.19-1.41,2.36-2.83,3.5-4.28,1.03-1.3,2.06-2.61,3.11-3.91,1.37-1.69,2.76-3.36,4.08-5.1,1.29-1.71,2.71-3.31,4.03-5,1.22-1.57,2.48-3.12,3.68-4.7,.75-1,1.55-1.97,2.34-2.95,.52-.65,1.25-.85,2.05-1.07,1.49-.42,2.99-.31,4.44-.19,1.16,.1,2.47,.07,3.41,1.08,1.2,1.3,2.55,2.48,3.63,3.88,.69,.9,1.6,1.55,2.3,2.41,1.43,1.74,3.11,3.25,4.59,4.94,2.35,2.68,4.88,5.18,7.33,7.76,2.42,2.56,4.83,5.12,7.29,7.65,2.31,2.38,4.53,4.83,6.81,7.24,3.56,3.76,7.15,7.49,10.79,11.18,1.49,1.51,2.96,3.06,4.35,4.66,1.23,1.41,2.35,3.02,2.78,4.88,.38,1.63,.49,3.37-.1,4.99-.58,1.58-1.46,3.02-2.85,4.08-1.55,1.19-3.27,1.97-5.14,2.57-1.19,.38-2.39,.69-3.59,1.01-1.2,.32-2.46,.45-3.7,.66-1.34,.23-2.67,.45-4.01,.68-.1,.02-.19,.08-.28,.09-1.93,.07-3.87,.24-5.78,.46-1.72,.2-3.48,0-5.12,.39-1.51,.35-2.98,.07-4.45,.33-2.32,.41-4.7,.29-7.02,.65-.97,.15-1.92,.21-2.87,.24-1.02,.03-2.03,.03-3,.42-.07,.03-.15,.04-.22,.03-2.01-.25-3.97,.32-5.96,.33-1.19,0-2.36,.07-3.54,.36-.71,.17-1.5-.02-2.25,.03-2.21,.14-4.43,.23-6.61,.53-1.88,.26-3.78,.12-5.64,.5-1.56,.32-3.21,.02-4.74,.38-1.48,.34-2.97,.09-4.43,.44-.09,.02-.2-.02-.3-.03,.04-.09,.14-.22,.11-.26-.53-.74-.49-2.15-2.01-1.75-.12,.03-.3-.05-.42-.13-.41-.25-.87-.19-1.32-.21-.45-.02-.65,.19-.5,.66,.07,.22,.37,.46,.1,.67-.28,.22-.58-.02-.81-.18-.18-.12-.33-.31-.44-.5-.28-.49-.69-.65-1.24-.69-1.51-.12-2.91,.2-4.28,.81-.28,.12-.46,.32-.49,.61-.11,1.1-.84,1.5-1.8,1.7-.18,.04-.42-.05-.57,.17,.92,.09,1.81,0,2.71-.08Z"/>
        <path class="cls-2" d="M90.5,81.81c-.47,.52-.82,1.24-1.74,.97-.14-.04-.31,.06-.36,.22-.07,.24,.14,.28,.29,.36,.8,.43,1.48,.95,1.5,1.97-.91,.61-1.98,.85-2.98,1.26-1.73,.71-3.48,1.37-5.22,2.06-1.05,.41-2.12,.83-3.2,1.19-1.64,.54-3.22,1.27-4.84,1.89-3.99,1.51-7.98,3-11.97,4.51-2.94,1.12-5.87,2.28-8.8,3.42-6.06,2.35-12.12,4.69-18.18,7.05-2.22,.86-4.41,1.79-6.62,2.66-3.06,1.2-6.14,2.37-9.21,3.56-1.99,.77-3.97,1.55-5.95,2.33-1.63,.64-3.25,1.3-4.86,1.94,.8,.57,1.63,.03,2.44,.08,.72,.04,1.48,.13,2.17-.02,2.15-.46,4.35-.33,6.52-.63,1.74-.24,3.52-.26,5.28-.44,.19,.13,.41,.18,.64,.2,1.05,.1,1.06,.11,.72,1.13-.19,.57,.22,.83,.56,1.1,.24,.19,.57,.23,.74-.04,.26-.41,0-.75-.27-1.07-.13-.15-.26-.31-.33-.49-.09-.23-.04-.52,.22-.55,.93-.11,1.83-.75,2.82-.18,.3,.17,.65,.14,.93-.06,.4-.29,.84-.28,1.29-.28,.51,0,1.1,.36,1.5-.27,1.23,.07,2.5-.36,3.67,.32,.36,.21,.71,.25,1.02-.08,.75-.8,1.21-.81,2.05-.03,.24,.22,.5,.32,.82,.23,.51-.14,1.04-.23,1.46-.57,1.2-.96,2.49-.81,3.82-.35,.45,.15,.96,.26,1.19-.24,.18-.38,.41-.36,.7-.37,.97-.03,1.95,.08,2.92-.09,.36-.06,.66,.04,.78,.41,.13,.38-.15,.54-.41,.7-.68,.43-1.21,.97-1.28,1.83-.44,.28-.93,.29-1.44,.29-1-.02-2.08-.23-2.99,.07-1.71,.56-3.46,.01-5.1,.41-1.67,.4-3.35,.06-4.95,.38-1.74,.35-3.52,0-5.18,.41-1.6,.39-3.22-.07-4.76,.42-1.47,.47-3.03-.06-4.43,.37-1.86,.57-3.76,.05-5.6,.57-1.13,.32-2.35,0-3.52,.13-1.28,.15-2.57,.54-3.83,.26-1.13-.25-2.31-.12-3.4-.54-.05-.02-.1-.04-.15-.03-1.18,.12-2.28-.32-3.42-.43-1.03-.1-1.36-.34-1.57-1.32-.12-.56,.46-1.58,1.05-1.82,3.82-1.55,7.64-3.1,11.47-4.63,3.41-1.36,6.84-2.69,10.26-4.02,3.29-1.28,6.58-2.55,9.86-3.82,3.64-1.42,7.28-2.86,10.93-4.27,2.89-1.12,5.78-2.22,8.67-3.33,4.05-1.56,8.12-3.09,12.15-4.71,2.35-.94,4.73-1.81,7.09-2.72,4.25-1.64,8.51-3.27,12.76-4.92,2.08-.81,4.17-1.56,6.25-2.35Z"/>
        <path class="cls-2" d="M169.58,150.91c-1.13,1.27-2.36,2.46-3.69,3.51-.94,.75-1.83,1.56-2.81,2.25-1.98,1.38-3.95,2.78-6.03,4.02-2.07,1.24-4.18,2.39-6.35,3.41-2.95,1.37-5.98,2.55-9.1,3.48-1.03,.3-2.05,.69-3.08,.9-1.09,.22-2.17,.54-3.28,.74-.71,.12-1.52,0-2.17,.47-.04,.03-.09,.05-.14,.04-.95-.08-1.85,.22-2.77,.33-3.81,.43-7.64,.38-11.46,.28-1.82-.05-3.66-.19-5.48-.55-.88-.18-1.81-.18-2.71-.36-1.16-.24-2.32-.47-3.48-.74-1.27-.29-2.51-.66-3.75-1.01-2.52-.72-4.99-1.57-7.35-2.72,.04-.24-.61-.32-.17-.61,.47-.32,.75-.79,1.03-1.24,.22-.36,.5-.45,.93-.44,.57,.01,1.09,.35,1.66,.22,1.14,.18,2.19,.66,3.26,1.04,1.69,.59,3.41,1.05,5.14,1.47,1.34,.32,2.71,.57,4.07,.83,1.97,.37,3.96,.43,5.93,.69,2.62,.34,5.23,.28,7.83,.15,1.37-.07,2.78-.09,4.14-.29,1.41-.2,2.85-.3,4.21-.65,2.76-.7,5.55-1.29,8.24-2.24,2.49-.88,4.96-1.8,7.34-2.93,2.67-1.27,5.25-2.71,7.72-4.36,1.53-1.02,3.01-2.09,4.47-3.2,.67-.51,1.21-1.2,1.92-1.61,1.44-.84,2.3-2.31,3.7-3.17,1.37,.07,1.84,1.14,2.4,2.13,0,0,0-.03,0-.03-.05,.08-.11,.16-.16,.24Z"/>
        <path class="cls-2" d="M135.51,158.96c-.12,.22-.36,.29-.55,.3-1.43,.1-2.82,.48-4.23,.71-1.13,.19-2.27,.14-3.37,.34-2.97,.55-5.96,.11-8.94,.27-1.36-.63-2.87-.14-4.3-.56-.81-.24-1.76-.4-2.67-.37-.63,.02-1.2-.27-1.78-.41-1.86-.45-3.71-.95-5.52-1.57-2.53-.86-5-1.88-7.39-3.07-2.02-1-3.97-2.11-5.83-3.39-1.13-.78-2.36-1.42-3.34-2.42-.14-.14-.42,0-.51-.24,.47-.07,.61-.38,.53-.81-.08-.42-.39-.53-.77-.54-.4-.01-.79,0-1.16,.16-2.19-1.78-4.24-3.73-6.1-5.85-2.3-2.62-4.49-5.33-6.24-8.36-.31-.54-.65-1.06-.97-1.59-.4-.66-.33-1.81,.15-2.29,.54-.54,1.56-.58,2.28-.15,.44,.27,.57,.77,.78,1.15,1.3,2.38,2.92,4.55,4.6,6.65,1.81,2.26,3.79,4.38,5.97,6.3,.76,.67,1.43,1.47,2.26,2.03,1.01,.68,1.9,1.49,2.92,2.13,1.44,.91,2.85,1.86,4.34,2.69,2.14,1.2,4.31,2.3,6.57,3.22,2.01,.82,4.06,1.54,6.16,2.09,2.34,.61,4.71,1.08,7.11,1.43,1.17,.17,2.35,.03,3.48,.25,1.62,.32,3.23,.21,4.84,.21,1.36,0,2.75-.08,4.07-.28,1.49-.22,3.04-.21,4.49-.75,.41-.15,.93-.08,1.39-.23,.37,.75,.86,1.42,1.5,2.01-1.42-.36-2.56-1.64-4.19-1.13,.07,.31,.29,.5,.52,.7,1.12,.97,2.28,1.79,3.89,1.34Z"/>
        <path class="cls-2" d="M118.47,150.64c-1.63-.2-3.29-.27-4.89-.62-2.32-.5-4.63-1.07-6.89-1.88-2.05-.73-4.06-1.55-5.99-2.56-1.27-.66-2.48-1.45-3.71-2.18-1.76-1.04-3.33-2.32-4.91-3.56-1.48-1.16-2.85-2.5-4.12-3.92-1.67-1.86-3.28-3.77-4.65-5.87-.58-.89-1.22-1.76-1.66-2.75-.39-.87-.18-1.85,.53-2.2,.89-.44,1.97-.1,2.46,.7,1.33,2.16,2.84,4.19,4.46,6.14,1.53,1.86,3.22,3.55,5.04,5.09,1.96,1.66,4.06,3.18,6.31,4.46,2.42,1.38,4.96,2.51,7.58,3.47,2.34,.86,4.75,1.4,7.18,1.86,1.33,.25,2.76,.16,4.05,.41,1.62,.31,3.26,.41,4.78,.14,1.47-.26,2.94-.08,4.4-.4,1.02-.22,2.08-.34,3.1-.6,.56-.14,1.09-.3,1.67-.28-.13,.29-.41,.32-.68,.39-.53,.13-1.24,.14-1.53,.49-.71,.86-1.5,.73-2.37,.55-.19-.04-.39-.06-.59-.05-.2,.01-.4,.08-.46,.31-.05,.19,.06,.34,.21,.44,.35,.24,.56,.51,.54,.98-.02,.42-.19,.7-.54,.93,.56,.19,1.07-.11,1.55,.14-.07,.03-.13,.08-.2,.09-3.5,.34-7,.44-10.51,.29,.07-.06,.14-.14,.23-.19,.28-.17,.66-.31,.33-.71-.27-.33-.56-.23-.89,.02-.63,.47,.06,.59,.19,.85Zm-1.1-1.73c.11-1.17-.24-1.58-1.04-1.24-.58,.24-1,1.88-.59,2.33,.05,.05,.13,.07,.2,.09,.83,.31,1.35-.02,1.41-.88,0-.1,.02-.2,.02-.3Zm7.98-.06c.56,.01,1.31-.54,1.3-.93-.01-.4-.33-.39-.6-.38-.57,.02-1.05,.23-1.16,.85-.07,.36,.24,.45,.47,.46Zm-2.36,1.39c.8,.21,1.46,.19,2-.03-.68-.58-1.29-.58-2,.03Zm-2.93,.18s0,.04,0,.06h2.2s0-.04,0-.06h-2.2Z"/>
        <path class="cls-2" d="M124.99,130.19c-.78-.16-1.5,.36-2.23,.28-1.72-.2-3.46-.22-5.18-.51-1.55-.26-3.06-.64-4.52-1.16-2.16-.76-4.15-1.83-6.06-3.13-2.07-1.42-3.85-3.11-5.54-4.94-.55-.6-.98-1.24-.64-2.08,.67-1.62,2.48-1.27,3.22-.29,.67,.89,1.47,1.63,2.27,2.37,1.39,1.3,2.96,2.38,4.63,3.3,2.09,1.16,4.31,2.04,6.65,2.49,.91,.18,1.82,.49,2.79,.32,.76-.13,1.4,.47,2.2,.35,3.59-.52,7.17-1,10.37-2.92,1.19-.71,2.33-1.46,3.44-2.3,2.32-1.76,4.15-3.9,5.65-6.37,.56-.92,1.51-1.21,2.52-.82,.53,.21,.86,1.31,.64,2.06-.15,.52-.51,.9-.78,1.35-1.57,2.6-3.65,4.73-6.04,6.61-2.23,1.76-4.66,3.11-7.31,4.06-1.3,.46-2.62,.82-3.99,1.04-.7,.12-1.38,.34-2.1,.26Z"/>
        <path class="cls-2" d="M99.37,162.85c-.58,.13-1.1-.2-1.66-.22-.42-.01-.7,.08-.93,.44-.28,.46-.56,.92-1.03,1.24-.44,.3,.22,.38,.17,.61-1.34-.5-2.63-1.11-3.89-1.79-1.59-.86-3.21-1.68-4.74-2.65-1.47-.94-2.94-1.88-4.39-2.86-1.35-.92-2.55-2.02-3.84-2.99-2.29-1.71-4.22-3.8-6.23-5.8-.91-.9-1.78-1.91-2.58-2.96-.86-1.12-1.8-2.17-2.65-3.29-.73-.96-1.43-1.94-2.01-3,.26-.07,.59-.06,.77-.22,.47-.43,1.02-.67,1.62-.84,.25-.07,.39-.29,.55-.47,.76,.85,1.36,1.83,2.04,2.75,.7,.95,1.44,1.88,2.21,2.77,1.71,1.96,3.41,3.94,5.34,5.69,1.45,1.32,2.92,2.62,4.46,3.85,1.78,1.41,3.63,2.71,5.54,3.92,2.7,1.72,5.52,3.23,8.45,4.54,.94,.42,1.86,.86,2.79,1.29Z"/>
        <path class="cls-2" d="M129.61,139.96c-.09,.09-.17,.18-.32,.14-.53-.62-1.17-1.12-1.87-1.53-.74-.43-.74-1.04,0-1.49,.06-.31,.32-.26,.54-.29,2.06-.31,4.06-.84,6-1.59,2.91-1.13,5.59-2.65,8.13-4.49,2.98-2.17,5.42-4.84,7.51-7.83,1-1.42,1.89-2.92,2.54-4.54,.36-.89,1.37-1.4,2.26-1.17,.84,.22,1.34,1.41,.94,2.34-1.08,2.52-2.5,4.84-4.14,7.04-1.08,1.45-2.26,2.82-3.59,4.03-1.28,1.17-2.58,2.36-4,3.34-3.11,2.14-6.39,3.97-10.05,5.06-.97,.29-1.96,.5-2.91,.84-.37-.15-.73-.18-1.03,.15Z"/>
        <path class="cls-2" d="M118.46,140.39c-1.18,.14-2.32-.16-3.45-.38-1.69-.32-3.35-.8-4.97-1.38-2.03-.72-3.97-1.63-5.85-2.7-1.51-.86-2.9-1.85-4.29-2.89-1.77-1.33-3.34-2.86-4.84-4.45-1.36-1.44-2.47-3.09-3.61-4.72-.46-.67-.23-2.02,.36-2.38,.87-.53,2.27-.25,2.67,.67,.32,.74,.87,1.26,1.32,1.88,1.56,2.16,3.37,4.12,5.47,5.77,2.32,1.82,4.77,3.44,7.51,4.61,1.74,.74,3.51,1.42,5.34,1.87,.99,.24,2.02,.42,3.04,.59,1.43,.24,2.89,.24,4.31,.57-.1,.26-.27,.43-.56,.39-.82-.1-1.51,.16-2.26,.52-.65,.31-.8,.73-.93,1.29-.15,.65,.6,.4,.75,.75Z"/>
        <path class="cls-2" d="M156.28,145.23c.05-.24,.22-.4,.4-.53,2.57-1.81,4.65-4.11,6.67-6.48,1.37-1.61,2.63-3.3,3.83-5.03,1.31-1.9,2.48-3.9,3.46-5.99,.6-1.28,1.15-2.58,1.73-3.86,.41-.9,1.43-1.31,2.28-.92,.86,.4,1.15,1.35,.8,2.29-.82,2.26-1.9,4.41-3.07,6.5-1.02,1.83-2.14,3.61-3.4,5.3-1.2,1.63-2.4,3.27-3.73,4.78-1.45,1.65-3.11,3.12-4.65,4.7-.65,.66-1.43,1.14-2.14,1.71,.1-.46,.16-.93,.3-1.38,.12-.41,0-.66-.36-.85-.68-.37-1.37-.58-2.13-.23Z"/>
        <path class="cls-2" d="M169.75,150.69c-.56-.98-1.03-2.06-2.4-2.13,.55-.61,1.08-1.25,1.66-1.83,1.34-1.32,2.42-2.86,3.62-4.3,.97-1.16,1.86-2.38,2.71-3.62,2.43-3.52,4.51-7.24,6.15-11.2,.18-.43,.34-.87,.45-1.32,.34-1.36,1.82-1.56,2.75-1.16,.49,.21,.8,1.49,.56,2.1-1.48,3.85-3.3,7.54-5.48,11.03-1.46,2.35-3.07,4.61-4.85,6.74-.89,1.06-1.81,2.1-2.68,3.16-.76,.93-1.61,1.74-2.5,2.52Z"/>
        <path class="cls-2" d="M156.28,145.23c.75-.35,1.44-.14,2.13,.23,.36,.2,.48,.44,.36,.85-.14,.45-.2,.92-.3,1.38-.04,.04-.09,.09-.13,.13-.11,.08-.22,.16-.33,.24-2.56,2.22-5.44,3.97-8.38,5.6-2.94,1.63-6.02,2.93-9.2,4.01-1.12,.38-2.25,.75-3.42,1-.5,.11-.96,.35-1.49,.28-1.6,.44-2.77-.38-3.89-1.34-.23-.2-.45-.39-.52-.7,1.63-.5,2.77,.77,4.19,1.13-.64-.59-1.13-1.25-1.5-2.01,2.28-.58,4.55-1.21,6.76-2.03,2.27-.83,4.46-1.82,6.61-2.91,1.91-.97,3.73-2.07,5.49-3.28,1.22-.85,2.42-1.73,3.63-2.6Z"/>
        <path class="cls-2" d="M92.26,110.81c.17,0,.35,0,.52,.02,.23,.03,.58-.11,.64,.21,.06,.31-.07,.69-.44,.78-.96,.24-1.68,.96-2.63,1.22-.19,.05-.46,.18-.43,.37,.1,.74-.43,.53-.8,.58-.59,.09-1.25-.23-1.78,.29-.25,0-.5,0-.75,0-.53-.33-1.12,.19-1.7-.11,.31-.26,.59-.5,.87-.73,.26-.21,.4-.46,.2-.78-.22-.35-.54-.35-.85-.18-.57,.32-1.11,.67-1.8,.65-.08,0-.23,.09-.24,.16-.11,1-.9,1.14-1.65,1.34-.04,.01-.06,.08-.09,.12-.21,.41-.6,.29-.93,.3-.72,.02-1.49-.16-2.16,.04-1.71,.51-3.49,.06-5.21,.56-1,.29-2.13,.11-3.2,.15-.22,0-.44,.05-.66,.07l-.05,.02s-.04,.01-.04,.01c-.32-.04-.64-.1-.96-.12-.83-.07-.99-.45-.6-1.2,.32-.61,.88-.79,1.42-1.11,1.74-1.04,3.52-1.08,5.39-.52,.29,.09,.56,.08,.78-.13,.77-.76,1.64-.74,2.56-.34,.39,.17,.71,.11,1.01-.21,.2-.22,.46-.38,.7-.56,.99-.05,2.04,.09,2.97-.18,1.98-.59,4.03-.09,6.03-.62,1.21-.32,2.58-.09,3.87-.11Z"/>
        <path class="cls-2" d="M79.38,111.72c-.24,.19-.5,.35-.7,.56-.3,.32-.62,.38-1.01,.21-.92-.4-1.79-.42-2.56,.34-.21,.21-.49,.22-.78,.13-1.86-.56-3.65-.53-5.39,.52-.54,.32-1.1,.5-1.42,1.11-.39,.75-.23,1.14,.6,1.2,.32,.03,.64,.08,.96,.12-.19,.19-.43,.21-.69,.21-1.2,0-2.4,.03-3.6,.04,.22-.3,.6-.15,.88-.31-.42-.58-.1-.8,.42-.8,.59,0,.92-.24,1.07-.81,.06-.23,.22-.45,.36-.65,.31-.46,.13-.65-.35-.64-.22,0-.44,.06-.66,.11-.81,.19-1.59,.73-2.46,.19-.07-.05-.2-.01-.3-.02-.55-.02-.67,.2-.41,.68,.22,.41,.54,.77,.62,1.27,.09,.56-.11,.88-.69,.89-.37,.01-.73,0-1.1,0,.66,.28,1.39-.02,2.04,.34-.96,.21-1.95-.04-2.9,.15-2.12,.42-4.26,.4-6.4,.46,.2-.41,.58-.33,.92-.34,.9,0,1.8,0,2.71,0-.61,.03-1.07-.59-1.63-.47-2.1,.45-2.09,.47-2.51-1.6-.12-.62-.63-.46-1.02-.47-.22,0-.7,.01-.55,.28,.4,.71-.37,1.95,1.1,2.14-.47,.44-.98,.16-1.37,.46h2.38c-.2,.33-.53,.31-.85,.31-1.24,0-2.48-.07-3.71,.1,.07-.86,.6-1.4,1.28-1.83,.26-.16,.54-.33,.41-.7-.13-.37-.42-.48-.78-.41-.97,.18-1.95,.06-2.92,.09-.3,0-.53,0-.7,.37-.24,.5-.75,.39-1.19,.24-1.32-.45-2.62-.61-3.82,.35-.42,.34-.95,.43-1.46,.57-.32,.09-.58,0-.82-.23-.85-.78-1.3-.76-2.05,.03-.31,.33-.66,.29-1.02,.08-1.17-.68-2.44-.25-3.67-.32-.4,.62-.99,.27-1.5,.27-.45,0-.89,0-1.29,.28-.28,.2-.63,.23-.93,.06-.99-.57-1.89,.07-2.82,.18-.26,.03-.31,.32-.22,.55,.07,.18,.2,.34,.33,.49,.27,.32,.53,.66,.27,1.07-.17,.27-.5,.22-.74,.04-.34-.27-.75-.53-.56-1.1,.33-1.02,.32-1.02-.72-1.13-.23-.02-.44-.07-.64-.2,1.35-.12,2.71-.09,4.04-.41,1.47-.36,3,.07,4.51-.31,1.44-.36,2.98-.08,4.5-.37,1.63-.31,3.37,.07,5.02-.42,.35,.09,.69,.1,1.03-.03,.51,0,1.01,0,1.52,0,.3,.12,.6,.12,.89-.01,.5-.13,.99-.34,1.49-.36,1.56-.07,3.11-.05,4.67-.31,1.57-.27,3.22,0,4.81-.4,1.4-.34,2.87,.1,4.29-.33,1.67-.51,3.45-.09,5.17-.51,1.42-.35,2.94-.11,4.44-.3,1.62-.21,3.29-.38,4.95-.38,1.1,0,2.16-.32,3.26-.29Zm-22.94,2.92c-.03-.19-.12-.35-.32-.34-.25,.02-.29,.24-.3,.44,0,.2,.07,.36,.29,.33,.22-.03,.32-.2,.33-.43Z"/>
        <path class="cls-2" d="M157.88,134.46c-1.61,2.01-3.46,3.79-5.44,5.41-2.26,1.86-4.67,3.53-7.23,4.97-.41,.23-.85,.41-1.27,.61-.16-.23-.36-.32-.64-.28-.16,.02-.38,.1-.45-.12-.06-.18,.14-.23,.24-.33,.45-.45,.41-.87,0-1.35-.37-.43-.88-.39-1.33-.57,2-1.05,3.96-2.18,5.79-3.5,1.2-.86,2.34-1.82,3.48-2.78,1.18-1,2.24-2.1,3.32-3.19,.08,.84-.06,1.56-.82,2.11-.41,.3-.24,.61,.22,.72,.6,.15,1.24-.24,1.39-.92,.13-.59,.55-.81,.98-.61,.67,.31,1.21,.18,1.77-.17Z"/>
        <path class="cls-2" d="M141.74,142.8c.45,.18,.96,.14,1.33,.57,.42,.48,.45,.91,0,1.35-.1,.1-.3,.15-.24,.33,.08,.22,.29,.15,.45,.12,.28-.04,.49,.05,.64,.28,0,0-.04,0-.04,0,0,0,0-.04,0-.04-.07,.06-.14,.12-.21,.19,0,0-.03-.04-.03-.04-.08,.05-.16,.11-.24,.16-1.49,.92-3.12,1.51-4.75,2.13-2.22,.85-4.52,1.43-6.82,1.99-.83,.2-1.68,.3-2.52,.45-.47-.26-.99,.05-1.55-.14,.35-.23,.53-.51,.54-.93,.02-.47-.18-.75-.54-.98-.15-.1-.26-.25-.21-.44,.06-.23,.26-.3,.46-.31,.19-.01,.4,0,.59,.05,.87,.18,1.66,.31,2.37-.55,.29-.35,1-.36,1.53-.49,.27-.07,.54-.09,.68-.39,.53-.49,1.25-.43,1.88-.62,2.3-.71,4.48-1.67,6.66-2.68Z"/>
        <path class="cls-2" d="M156.78,130.48c.15-.55,.62-.88,.92-1.33,1.84-2.67,3.54-5.42,4.71-8.47,.45-1.17,1.47-1.61,2.62-1.15,.54,.22,.99,1.56,.72,2.17-1.07,2.39-2.17,4.77-3.61,6.97-1.01,1.54-1.98,3.12-3.23,4.49-.21,.23-.17,.67-.59,.7-.09-.18-.14-.38-.27-.52-.48-.52-.35-.93,.19-1.29,.1-.07,.22-.14,.29-.23,.3-.38,.61-.78,.3-1.27-.26-.42-1.18-.51-1.59-.19-.15,.12-.27,.22-.46,.12Z"/>
        <path class="cls-2" d="M95.11,113.58c-.89,.07-1.79,.16-2.71,.08,.15-.23,.38-.14,.57-.17,.96-.2,1.69-.6,1.8-1.7,.03-.29,.21-.48,.49-.61,1.36-.6,2.77-.92,4.28-.81,.55,.04,.96,.2,1.24,.69,.11,.19,.26,.38,.44,.5,.24,.17,.53,.4,.81,.18,.27-.21-.03-.45-.1-.67-.16-.47,.05-.68,.5-.66,.44,.02,.9-.04,1.32,.21,.12,.07,.3,.16,.42,.13,1.53-.4,1.48,1.01,2.01,1.75,.03,.04-.07,.17-.11,.26-2.11,.34-4.26,.3-6.39,.47-.62,0-1.28,.11-1.86-.05-.98-.27-1.8,.14-2.67,.37l-.04,.02Z"/>
        <path class="cls-2" d="M68.53,138.05c-.16,.19-.31,.41-.55,.47-.6,.17-1.14,.41-1.62,.84-.18,.16-.51,.15-.77,.22-.96-1.17-1.63-2.53-2.4-3.82-.3-.51-.58-.99-.56-1.62,.03-.68,.25-1.2,.92-1.45,.73-.27,1.79-.08,2.09,.5,.87,1.68,1.98,3.2,2.89,4.85Z"/>
        <path class="cls-2" d="M156.78,130.48c.19,.1,.31,0,.46-.12,.41-.32,1.33-.23,1.59,.19,.31,.49,0,.89-.3,1.27-.07,.09-.19,.16-.29,.23-.54,.36-.67,.77-.19,1.29,.13,.14,.18,.34,.27,.52,0,0,0-.03,0-.03-.05,.05-.11,.11-.16,.16,0,0,.01-.02,.01-.02-.05,.06-.1,.12-.16,.18,0,0,.03-.02,.03-.02-.06,.11-.12,.22-.18,.33h0c-.56,.34-1.1,.48-1.77,.17-.43-.2-.84,.02-.98,.61-.15,.69-.79,1.07-1.39,.92-.47-.12-.63-.43-.22-.72,.76-.55,.89-1.27,.82-2.11,0,0,0,0,0,0,1.61-.38,2.32-1.21,2.14-2.52,.1-.11,.2-.22,.31-.33Z"/>
        <path class="cls-2" d="M127.42,137.09c-.75,.46-.75,1.06,0,1.49,.7,.41,1.34,.9,1.87,1.53-.95,.12-1.88,.43-2.85,.27,.37-.79,.21-1.56-.39-1.91-.96-.57-1.81-.54-2.16,.23-.31,.7-.8,.88-1.43,1-.27,.05-.61,.13-.54,.49,.06,.31,.4,.24,.64,.24,1.2,.01,2.4,.01,3.6,.02-.11,.21-.3,.21-.51,.21-2.16,0-4.32,.02-6.48,.03-.21,0-.46,.06-.58-.21,.43-.19,.97,.15,1.3-.13,.78-.65,1.88-.58,2.63-1.38,.46-.49,.83-.85,.74-1.53,1.37-.19,2.74-.45,4.14-.36Zm.58,2.93c-.17-.06-.23-.1-.28-.09-.07,0-.16,.03-.19,.08-.05,.09,.05,.12,.11,.11,.08,0,.17-.04,.36-.1Z"/>
        <path class="cls-2" d="M123.28,137.44c.09,.68-.28,1.04-.74,1.53-.76,.8-1.85,.73-2.63,1.38-.34,.28-.88-.07-1.3,.13-.04-.03-.09-.06-.13-.09-.15-.35-.89-.1-.75-.75,.13-.56,.28-.98,.93-1.29,.75-.35,1.44-.62,2.26-.52,.29,.04,.47-.13,.56-.39,.15,0,.3,0,.45,0h.07s.07,0,.07,0c.25,0,.5,0,.76,0h.07s.07,0,.07,0h.3Z"/>
        <path class="cls-2" d="M64.21,116.42c-.64-.36-1.37-.06-2.04-.34,.37,0,.73,0,1.1,0,.59-.02,.78-.33,.69-.89-.08-.49-.4-.85-.62-1.27-.25-.48-.14-.7,.41-.68,.1,0,.22-.03,.3,.02,.87,.54,1.65,0,2.46-.19,.22-.05,.44-.11,.66-.11,.48,0,.66,.19,.35,.64-.14,.21-.3,.42-.36,.65-.15,.57-.48,.81-1.07,.81-.52,0-.84,.22-.42,.8-.27,.16-.66,0-.88,.31-.15,.19-.36,.24-.59,.25Z"/>
        <path class="cls-2" d="M126.16,140.45c-1.2,0-2.4,0-3.6-.02-.24,0-.58,.07-.64-.24-.07-.36,.27-.44,.54-.49,.63-.12,1.12-.3,1.43-1,.35-.78,1.2-.8,2.16-.23,.6,.35,.75,1.12,.39,1.91-.09,.02-.19,.05-.28,.07Z"/>
        <path class="cls-2" d="M81.34,114.76s.05-.1,.09-.12c.75-.2,1.54-.34,1.65-1.34,0-.06,.16-.16,.24-.16,.69,.01,1.23-.34,1.8-.65,.31-.17,.64-.17,.85,.18,.2,.32,.05,.57-.2,.78-.28,.23-.56,.47-.87,.73,.58,.3,1.17-.22,1.7,.11-1.72,.45-3.49,.44-5.25,.47Z"/>
        <path class="cls-2" d="M156.48,130.81c.18,1.3-.53,2.13-2.14,2.52,.71-.84,1.43-1.68,2.14-2.52Z"/>
        <path class="cls-2" d="M85.67,147.37c.37-.16,.77-.17,1.16-.16,.38,.01,.69,.12,.77,.54,.08,.43-.06,.73-.53,.81-.47-.4-.93-.79-1.4-1.19Z"/>
        <path class="cls-2" d="M95.15,113.56c.87-.23,1.69-.64,2.67-.37,.58,.16,1.23,.04,1.86,.05-.27,.18-.55,.28-.89,.28-1.21,0-2.42,.02-3.63,.04Z"/>
        <path class="cls-2" d="M118.47,150.64c-.12-.27-.81-.38-.19-.85,.34-.25,.62-.35,.89-.02,.33,.4-.05,.54-.33,.71-.08,.05-.15,.13-.23,.19-.05,0-.1-.02-.15-.03Z"/>
        <path class="cls-2" d="M129.61,139.96c.3-.33,.66-.3,1.03-.15-.34,.05-.69,.1-1.03,.15Z"/>
        <path class="cls-2" d="M158.01,148.07c.11-.08,.22-.16,.33-.24-.05,.16-.15,.26-.33,.24Z"/>
        <path class="cls-2" d="M157.87,134.46c.06-.11,.12-.22,.18-.33,.05,.17-.06,.25-.18,.33Z"/>
        <path class="cls-2" d="M90.8,81.67c-.08,.05-.16,.09-.24,.14,.05-.09,.12-.15,.24-.14Z"/>
        <path class="cls-2" d="M158.01,134.15c.05-.06,.1-.12,.16-.18-.02,.09-.02,.19-.16,.18Z"/>
        <path class="cls-2" d="M122.98,137.45h-.07s-.07,0-.07,0c.05-.02,.1-.02,.15,0Z"/>
        <path class="cls-2" d="M122.07,137.45h-.07s-.07,0-.07,0c.05-.02,.1-.02,.15,0Z"/>
        <path class="cls-2" d="M143.69,145.6c.07-.06,.14-.12,.21-.19,0,.15-.1,.17-.21,.19Z"/>
        <path class="cls-2" d="M143.42,145.72c.08-.05,.16-.11,.24-.16-.03,.12-.13,.16-.24,.16Z"/>
        <path class="cls-2" d="M158.15,133.99c.05-.05,.11-.11,.16-.16-.01,.1-.07,.15-.16,.16Z"/>
        <path class="cls-2" d="M69.13,115.9l.05-.02-.05,.02Z"/>
        <path class="cls-2" d="M169.58,150.91c.05-.08,.11-.16,.16-.24-.05,.08-.11,.16-.16,.24Z"/>
        <path class="cls-2" d="M149.26,56.12c-.55-.54-1.1-1.08-1.64-1.62,.19-.35,.37-.71,.58-1.04,.22-.34,.56-.39,.92-.29,.42,.11,.35,.4,.27,.71-.11,.41,.18,.64,.45,.86,.21,.17,.63,.17,.53,.6-.08,.35-.39,.49-.69,.61-.14,.05-.28,.11-.41,.17Z"/>
        <path class="cls-2" d="M117.37,148.9c0,.1-.02,.2-.02,.3-.05,.86-.58,1.19-1.41,.88-.07-.03-.15-.04-.2-.09-.41-.44,.01-2.08,.59-2.33,.8-.33,1.15,.07,1.04,1.24Z"/>
        <path class="cls-2" d="M125.35,148.84c-.23-.01-.54-.1-.47-.46,.11-.62,.59-.83,1.16-.85,.27,0,.59-.02,.6,.38,.01,.39-.73,.94-1.3,.93Z"/>
        <path class="cls-2" d="M122.99,150.23c.71-.62,1.32-.61,2-.03-.54,.22-1.2,.24-2,.03Z"/>
        <path class="cls-2" d="M120.07,150.4h2.2s0,.04,0,.06h-2.2s0-.04,0-.06Z"/>
        <path class="cls-2" d="M54.93,117.02h-2.38c.39-.3,.89-.03,1.37-.46-1.47-.2-.7-1.43-1.1-2.14-.15-.26,.33-.28,.55-.28,.4,.01,.9-.15,1.02,.47,.42,2.07,.41,2.05,2.51,1.6,.57-.12,1.02,.5,1.63,.47-.9,0-1.8,0-2.71,0-.34,0-.72-.07-.92,.34,0,0,.01,0,.01,0Z"/>
        <path class="cls-2" d="M56.44,114.64c0,.22-.11,.4-.33,.43-.23,.03-.3-.13-.29-.33,0-.2,.05-.42,.3-.44,.2-.02,.29,.15,.32,.34Z"/>
        <path class="cls-2" d="M42.87,114.67c.34-.11,.68-.07,1.03-.03-.34,.13-.68,.12-1.03,.03Z"/>
        <path class="cls-2" d="M45.41,114.63c.3,0,.6,0,.89-.01-.3,.14-.59,.14-.89,.01Z"/>
        <path class="cls-2" d="M127.99,140.02c-.19,.06-.28,.09-.36,.1-.07,0-.16-.02-.11-.11,.03-.05,.12-.08,.19-.08,.05,0,.11,.03,.28,.09Z"/>
      </g>
    </g>
  </g>
</svg>