<?xml version="1.0" encoding="UTF-8"?>
<svg id="Camada_2" data-name="Camada 2" xmlns="http://www.w3.org/2000/svg" viewBox="0 0 607.04 320.85">
  <defs>
    <style>
      .cls-1 {
        fill: #2f2d7e;
      }
    </style>
  </defs>
  <g id="Camada_1-2" data-name="Camada 1">
    <g>
      <g>
        <path class="cls-1" d="M84.48,277.99v-65.99h17.44c.24,1.32,.5,2.72,.82,4.5,13.19-8.23,25.83-8.52,36.27,2,6.52-2.7,12.17-6.46,18.22-7.28,18.45-2.51,29.41,6.92,30.49,26,.71,12.63,.24,25.32,.04,37.99-.02,1.09-1.93,3-3.07,3.08-4.79,.35-9.62,.15-15.24,.15,0-2.31,0-4.21,0-6.11,0-10.67,.07-21.33-.04-32-.09-9.57-3.01-13.4-10.13-13.71-8.31-.36-13.49,4.28-13.82,13.48-.41,11.48-.14,22.99-.17,34.49,0,.99-.1,1.98-.18,3.38h-17.91c0-6.6,.05-13.2-.01-19.8-.06-7.16,.2-14.36-.46-21.46-.66-7.08-4.22-9.98-10.64-10.09-6.77-.12-11.91,3.6-12.78,10.09-.72,5.42-.66,10.96-.73,16.44-.11,8.14-.03,16.29-.03,24.86h-18.06Z"/>
        <path class="cls-1" d="M511.66,217.21v-5.22h18.19c.09,1.88,.24,3.5,.24,5.12,.01,18.81-.12,37.62,.09,56.42,.04,4.02-1.15,5.4-5.07,4.98-2.63-.29-5.33-.23-7.98-.03-3.92,.3-6.95-.09-4.91-6.51-8.1,7.19-16.5,8.85-25.52,7.45-7.66-1.18-14.05-5.01-19.16-10.78-10.68-12.07-11.18-32.58-1.24-45.3,10.99-14.06,26.42-16.18,45.37-6.12Zm-17.31,9.54c-10.09,.08-17.14,7.74-17.13,18.61,.01,10.48,7.69,18.52,17.52,18.35,10.27-.18,17.44-7.77,17.41-18.44-.03-10.96-7.38-18.6-17.81-18.52Z"/>
        <path class="cls-1" d="M0,245.28c.14-20.39,14.99-34.71,35.79-34.53,19.21,.17,34.67,15.64,34.54,34.55-.13,19.99-15.43,34.63-35.99,34.42C14.74,279.53-.13,264.62,0,245.28Zm52.26-.05c-.03-10.83-7.24-18.49-17.36-18.46-9.89,.03-17.59,8.09-17.67,18.47-.07,10.11,7.92,18.5,17.64,18.51,9.99,.01,17.42-7.91,17.39-18.52Z"/>
        <path class="cls-1" d="M546.57,211.86h17.74c.33,1.51,.63,2.92,1.01,4.67,.73-.42,1.41-.72,2.01-1.15,12.67-9.11,30.3-5.21,37.11,8.42,1.38,2.76,2.4,6.01,2.45,9.05,.25,14.95,.11,29.91,.11,45.21h-17.9c0-11.17,.06-22.27-.04-33.36-.03-3.14-.2-6.34-.83-9.41-1.26-6.04-3.98-8.39-9.23-8.63-6.94-.31-11.21,2.03-12.91,7.74-.89,2.97-1.19,6.21-1.23,9.33-.14,11.3-.05,22.59-.05,34.25h-18.25v-66.12Z"/>
        <path class="cls-1" d="M223.09,278.12h-17.83v-65.99h17.56c.19,1.35,.38,2.76,.6,4.3,.47-.14,.99-.17,1.36-.42,18.67-12.52,38.86-3.85,40.82,18.4,1.27,14.33,.24,28.86,.24,43.65h-18.44c0-7.82,.02-15.28,0-22.74-.02-5.83,.05-11.66-.16-17.49-.26-6.92-3.16-10.63-8.36-11.19-7.62-.82-13.35,2.59-14.98,9.23-.62,2.55-.76,5.27-.78,7.91-.08,11.3-.03,22.6-.03,34.34Z"/>
        <path class="cls-1" d="M370.47,220.23c-3.09,4.31-5.98,8.33-9.06,12.63-2.78-1.48-5.24-3.45-8.01-4.1-4.43-1.04-9.07-1.62-13.6-1.49-1.59,.05-3.11,2.78-4.66,4.28,1.53,1.35,2.86,3.37,4.63,3.9,3.96,1.19,8.18,1.44,12.21,2.43,3.36,.82,6.74,1.86,9.87,3.32,7.84,3.65,11.7,10.32,11.09,18.41-.68,8.96-6.16,15.73-14.6,18.2-15.69,4.6-29.77,1.3-43.22-8.52,3.03-4.27,5.87-8.26,8.47-11.92,6.1,2.06,11.78,4.33,17.65,5.8,2.75,.69,6.01,.29,8.79-.49,1.68-.47,2.88-2.63,4.3-4.04-1.41-1.39-2.59-3.55-4.27-4.05-6.35-1.91-12.9-3.1-19.28-4.9-8.98-2.54-14.49-9.55-14.56-18-.08-8.92,5.15-16.14,14.21-18.84,14.42-4.3,27.84-2.62,40.04,7.38Z"/>
        <path class="cls-1" d="M449.61,230.13c-2.05,.9-3.91,1.61-5.67,2.51-5.75,2.92-10.5,4.24-15.75-2.15-4.38-5.34-12.69-4.89-18.9-1.09-6.24,3.82-9.47,11.6-7.95,19.57,1.37,7.15,5.43,12.02,12.57,14.02,7.14,2,13.3,0,17.99-5.45,2.15-2.5,3.84-3.03,6.7-1.77,3.6,1.58,7.33,2.85,11,4.25-5.86,14.56-21.92,22.62-37.98,19.37-16.88-3.41-28.61-17.46-28.56-34.18,.05-16.71,11.76-30.9,28.06-34.01,15.85-3.03,33.21,5.32,38.49,18.92Z"/>
        <path class="cls-1" d="M301.59,278.16h-18.11v-66.03h18.11v66.03Z"/>
        <path class="cls-1" d="M302.25,195.6c-.05,5.55-3.77,9.19-9.42,9.21-5.77,.02-10.22-4.35-10.05-9.88,.16-5.31,4.66-9.43,10.15-9.31,5.65,.12,9.38,4.12,9.33,9.98Z"/>
      </g>
      <g>
        <path class="cls-1" d="M143.61,320.74v-15.4h.95l7.15,12.34h-.51l7.13-12.34h.92l.02,15.4h-1.1l-.02-13.71h.31l-6.75,11.66h-.55l-6.78-11.66h.33v13.71h-1.1Z"/>
        <path class="cls-1" d="M165.37,320.74l7.08-15.4h1.12l7.08,15.4h-1.21l-6.69-14.7h.48l-6.67,14.7h-1.21Zm2.6-4.33l.37-.95h9.22l.37,.95h-9.97Z"/>
        <path class="cls-1" d="M186.76,320.74v-15.4h5.52c1.29,0,2.4,.21,3.32,.62,.92,.41,1.64,1,2.13,1.77,.5,.77,.75,1.71,.75,2.8s-.25,2-.75,2.77c-.5,.78-1.21,1.37-2.13,1.78-.92,.41-2.03,.62-3.32,.62h-4.91l.51-.53v5.57h-1.12Zm1.12-5.5l-.51-.55h4.91c1.66,0,2.92-.36,3.77-1.09,.86-.73,1.29-1.75,1.29-3.07s-.43-2.37-1.29-3.09c-.86-.73-2.12-1.09-3.77-1.09h-4.91l.51-.55v9.44Z"/>
        <path class="cls-1" d="M205.57,320.74v-15.4h5.52c1.29,0,2.4,.21,3.32,.62,.92,.41,1.64,1,2.13,1.77,.5,.77,.75,1.71,.75,2.8s-.25,2-.75,2.77c-.5,.78-1.21,1.37-2.13,1.78-.92,.41-2.03,.62-3.32,.62h-4.91l.51-.53v5.57h-1.12Zm1.12-5.5l-.51-.55h4.91c1.66,0,2.92-.36,3.77-1.09,.86-.73,1.29-1.75,1.29-3.07s-.43-2.37-1.29-3.09c-.86-.73-2.12-1.09-3.77-1.09h-4.91l.51-.55v9.44Z"/>
        <path class="cls-1" d="M224.38,320.74v-15.4h1.12v15.4h-1.12Z"/>
        <path class="cls-1" d="M234.16,320.74v-15.4h.95l10.98,14.01h-.51v-14.01h1.12v15.4h-.92l-11-14.01h.51v14.01h-1.12Z"/>
        <path class="cls-1" d="M261.95,320.85c-1.16,0-2.23-.19-3.21-.58s-1.84-.94-2.56-1.64c-.73-.7-1.29-1.53-1.68-2.47s-.59-1.98-.59-3.11,.2-2.17,.59-3.11c.4-.95,.96-1.77,1.69-2.47s1.59-1.25,2.56-1.64c.98-.39,2.05-.58,3.22-.58s2.15,.18,3.1,.53c.95,.35,1.77,.88,2.44,1.58l-.7,.75c-.67-.66-1.41-1.13-2.21-1.41-.8-.28-1.67-.42-2.61-.42-1,0-1.92,.17-2.77,.51-.85,.34-1.59,.81-2.22,1.43-.63,.62-1.12,1.33-1.46,2.16-.34,.82-.52,1.72-.52,2.68s.17,1.86,.52,2.68c.34,.82,.83,1.54,1.46,2.16,.63,.62,1.37,1.09,2.22,1.43,.85,.34,1.77,.51,2.77,.51,.91,0,1.77-.14,2.58-.42s1.56-.74,2.23-1.39l.64,.86c-.69,.66-1.51,1.16-2.48,1.49-.96,.33-1.97,.5-3.02,.5Zm5.5-1.98l-1.08-.13v-5.63h1.08v5.76Z"/>
        <path class="cls-1" d="M287.58,320.74v-14.39h-5.54v-1.01h12.21v1.01h-5.54v14.39h-1.12Z"/>
        <path class="cls-1" d="M300.32,320.74v-15.4h1.12v15.4h-1.12Zm.99-7.33v-.99h10.56v.99h-10.56Zm10.43,7.33v-15.4h1.12v15.4h-1.12Z"/>
        <path class="cls-1" d="M321.52,320.74v-15.4h10.3v1.01h-9.17v13.38h9.5v1.01h-10.63Zm.99-7.33v-.99h8.34v.99h-8.34Z"/>
        <path class="cls-1" d="M354.52,320.85c-1.91,0-3.41-.56-4.51-1.67-1.1-1.12-1.65-2.77-1.65-4.97v-8.87h1.12v8.82c0,1.92,.44,3.34,1.32,4.27,.88,.92,2.13,1.39,3.74,1.39s2.84-.46,3.72-1.39c.88-.92,1.32-2.35,1.32-4.27v-8.82h1.12v8.87c0,2.2-.55,3.86-1.65,4.97-1.1,1.11-2.61,1.67-4.53,1.67Z"/>
        <path class="cls-1" d="M369.24,320.74v-15.4h.95l10.98,14.01h-.51v-14.01h1.12v15.4h-.92l-11-14.01h.51v14.01h-1.12Z"/>
        <path class="cls-1" d="M394.5,320.85c-1.14,0-2.23-.19-3.25-.58-1.02-.39-1.81-.89-2.37-1.51l.51-.84c.53,.54,1.25,1,2.17,1.38s1.89,.56,2.92,.56,1.87-.14,2.52-.41c.65-.27,1.14-.63,1.45-1.09,.32-.45,.47-.96,.47-1.52,0-.66-.18-1.19-.53-1.58-.35-.4-.81-.71-1.39-.95-.57-.23-1.2-.43-1.87-.59-.67-.16-1.36-.33-2.05-.52-.69-.18-1.32-.42-1.89-.71-.57-.29-1.03-.69-1.38-1.2s-.52-1.16-.52-1.97c0-.73,.19-1.41,.57-2.02,.38-.62,.97-1.11,1.78-1.5,.81-.38,1.84-.57,3.1-.57,.85,0,1.69,.12,2.52,.37,.83,.25,1.54,.59,2.12,1.01l-.42,.9c-.65-.44-1.34-.77-2.08-.98-.74-.21-1.46-.32-2.14-.32-.98,0-1.8,.14-2.44,.42-.65,.28-1.12,.65-1.43,1.11s-.46,.98-.46,1.55c0,.66,.17,1.19,.52,1.58,.34,.4,.8,.71,1.38,.95,.57,.24,1.2,.43,1.89,.59,.69,.16,1.37,.33,2.05,.52,.67,.18,1.3,.42,1.87,.71,.57,.29,1.03,.69,1.39,1.19,.35,.5,.53,1.14,.53,1.94,0,.72-.2,1.39-.59,2.01-.4,.62-1,1.12-1.81,1.5-.81,.37-1.86,.56-3.13,.56Z"/>
        <path class="cls-1" d="M407.15,320.74v-15.4h10.3v1.01h-9.17v13.38h9.5v1.01h-10.63Zm.99-7.33v-.99h8.34v.99h-8.34Z"/>
        <path class="cls-1" d="M425.17,320.74v-15.4h10.3v1.01h-9.17v13.38h9.5v1.01h-10.63Zm.99-7.33v-.99h8.34v.99h-8.34Z"/>
        <path class="cls-1" d="M443.18,320.74v-15.4h.95l10.98,14.01h-.51v-14.01h1.12v15.4h-.92l-11-14.01h.51v14.01h-1.12Z"/>
        <path class="cls-1" d="M463.91,320.82c-.25,0-.47-.09-.65-.27-.18-.18-.27-.41-.27-.67s.09-.48,.27-.66c.18-.18,.4-.26,.65-.26s.46,.09,.65,.26c.18,.18,.28,.4,.28,.66s-.09,.49-.28,.67c-.18,.18-.4,.27-.65,.27Z"/>
      </g>
      <g>
        <path class="cls-1" d="M283.77,100.31c-.27,.27-.58,.38-.97,.39-1.51,.04-3.06-.06-4.53,.22-1.6,.3-3.18,.39-4.78,.32,.69-.69,1.57-.27,2.35-.39,.48-.07,1.19,.21,1.06-.77-.03-.24,.32-.41,.57-.48,1.25-.34,2.22-1.3,3.48-1.62,.48-.12,.65-.62,.58-1.03-.07-.42-.54-.24-.85-.27-.23-.03-.46-.02-.69-.03,.39-.14,.79-.42,1.18-.4,3.11,.17,6.15-.6,9.26-.67,2.66-.06,5.35-.29,7.97-.66,3.42-.49,6.89-.23,10.3-.97,1.69-.37,3.48-.12,5.27-.48,2.32-.47,4.76-.06,7.14-.6,1.83-.42,3.76-.16,5.68-.43,2.61-.37,5.31-.19,7.96-.57,1.24-.18,2.6,.2,3.76-.15,2.7-.81,5.51-.12,8.23-.91,1.75-.51,3.68,.07,5.57-.42,1.62-.42,3.39-.05,5.1-.41,1.46-.31,2.97-.11,4.49-.41,2.13-.42,4.36-.08,6.56-.57,1.99-.45,4.12-.2,6.19-.4,2.77-.27,5.55-.44,8.3-.94,1.6-.29,3.21-.49,4.81-.85,1.11-.25,2.21-.51,3.32-.77,3.23-.74,6.44-1.54,8.91-3.89,2.21-2.11,3.05-4.87,1.76-7.75-.81-1.8-2-3.32-3.35-4.79-1.9-2.07-3.81-4.13-5.75-6.16-4.09-4.3-8.23-8.55-12.33-12.84-2.3-2.41-4.64-4.8-6.84-7.31-1.75-1.99-3.71-3.79-5.54-5.71-2.72-2.85-5.44-5.71-8.09-8.61-1.45-1.59-3.07-3.01-4.35-4.75,.18-.07,.37-.15,.55-.22,.41-.16,.81-.34,.92-.81,.13-.57-.43-.57-.71-.8-.36-.3-.74-.6-.6-1.14,.11-.41,.2-.8-.35-.94-.48-.12-.94-.06-1.22,.39-.28,.44-.51,.92-.77,1.38-1.29-1.27-2.45-2.66-3.71-3.96-4.09-4.27-8.09-8.63-12.12-12.95-.25-.27-.52-.41-.9-.51-1.57-.4-3.15-.23-4.73-.19-.59,.01-1.28,.18-1.74,.74-1.12,1.36-2.23,2.73-3.29,4.13-1.13,1.49-2.31,2.94-3.44,4.43-1.06,1.4-2.17,2.79-3.3,4.14-1.14,1.37-2.17,2.84-3.36,4.18-.11,.12-.27,.21-.35,.34-1.07,1.89-2.68,3.36-3.95,5.11-1.54,2.13-3.23,4.15-4.88,6.2-1.6,1.98-3.17,3.99-4.87,5.88-.81,.9-1.68,1.8-2.35,2.79-1.17,1.76-2.61,3.29-4.01,4.82-1.79,1.95-3.8,3.72-5.8,5.49-1.81,1.6-3.74,3.14-5.25,5.16-1.96,2.64-4.7,4.35-8,5.03-.03-1.35-.93-2.04-1.99-2.6-.2-.11-.48-.16-.39-.47,.06-.21,.3-.34,.47-.29,1.22,.36,1.68-.59,2.3-1.28,0,0,.08,0,.08,0,.11-.06,.21-.12,.32-.18,2.12-.99,3.6-2.67,5.03-4.46,.69-.86,1.39-1.86,2.57-2.22,.2-.06,.37-.26,.54-.41,2.31-2.24,4.68-4.43,6.89-6.76,1.55-1.63,2.86-3.5,4.35-5.19,.81-.91,1.47-1.93,2.26-2.85,1.58-1.86,3.12-3.75,4.64-5.66,1.37-1.73,2.73-3.46,4.12-5.18,1.81-2.24,3.66-4.45,5.4-6.75,1.71-2.26,3.59-4.38,5.33-6.62,1.62-2.08,3.28-4.13,4.87-6.23,1-1.32,2.05-2.61,3.09-3.9,.69-.86,1.66-1.12,2.72-1.42,1.97-.56,3.95-.41,5.88-.25,1.53,.13,3.27,.09,4.51,1.43,1.59,1.72,3.38,3.29,4.8,5.14,.92,1.19,2.11,2.05,3.05,3.19,1.89,2.31,4.12,4.31,6.08,6.54,3.11,3.55,6.47,6.85,9.7,10.28,3.21,3.39,6.4,6.79,9.65,10.13,3.06,3.15,6,6.4,9.02,9.59,4.72,4.98,9.48,9.92,14.3,14.81,1.98,2,3.92,4.05,5.77,6.17,1.62,1.87,3.11,4,3.69,6.46,.51,2.16,.64,4.47-.14,6.61-.77,2.1-1.93,4-3.77,5.41-2.06,1.57-4.33,2.61-6.8,3.4-1.57,.5-3.17,.91-4.76,1.34-1.6,.43-3.26,.59-4.9,.87-1.77,.3-3.54,.6-5.31,.91-.13,.02-.25,.11-.37,.11-2.56,.09-5.13,.32-7.66,.61-2.27,.26-4.61,0-6.78,.52-1.99,.47-3.95,.09-5.89,.44-3.08,.55-6.23,.38-9.3,.86-1.28,.2-2.54,.28-3.81,.31-1.35,.04-2.69,.04-3.97,.56-.09,.04-.2,.06-.29,.05-2.66-.34-5.26,.43-7.9,.44-1.57,0-3.13,.09-4.69,.47-.94,.23-1.98-.03-2.97,.03-2.92,.19-5.87,.31-8.75,.7-2.49,.34-5,.16-7.46,.66-2.07,.43-4.25,.03-6.28,.5-1.96,.45-3.94,.11-5.86,.58-.12,.03-.26-.02-.39-.04,.05-.12,.18-.3,.14-.35-.7-.98-.65-2.84-2.67-2.31-.16,.04-.4-.07-.56-.17-.55-.33-1.16-.25-1.74-.28-.6-.03-.87,.25-.66,.87,.1,.29,.49,.61,.13,.88-.37,.29-.77-.02-1.08-.24-.23-.17-.43-.41-.58-.66-.37-.64-.91-.86-1.64-.91-1.99-.16-3.86,.27-5.67,1.07-.37,.16-.62,.43-.65,.8-.15,1.45-1.11,1.99-2.38,2.25-.24,.05-.55-.07-.75,.23,1.22,.12,2.4,0,3.59-.1Z"/>
        <path class="cls-1" d="M277.67,58.23c-.62,.69-1.09,1.64-2.3,1.28-.18-.05-.41,.08-.47,.29-.09,.31,.19,.37,.39,.47,1.06,.56,1.96,1.25,1.99,2.6-1.21,.81-2.63,1.13-3.95,1.67-2.29,.94-4.61,1.82-6.91,2.73-1.39,.55-2.8,1.11-4.24,1.58-2.18,.71-4.27,1.68-6.41,2.5-5.28,2.01-10.57,3.97-15.85,5.98-3.9,1.48-7.77,3.02-11.66,4.53-8.02,3.11-16.06,6.21-24.08,9.33-2.93,1.14-5.84,2.37-8.77,3.52-4.06,1.59-8.13,3.14-12.2,4.72-2.63,1.02-5.25,2.05-7.88,3.09-2.15,.85-4.3,1.72-6.44,2.57,1.06,.75,2.15,.04,3.23,.11,.96,.06,1.96,.17,2.88-.03,2.85-.61,5.76-.44,8.64-.83,2.3-.31,4.66-.34,7-.58,.25,.17,.54,.24,.84,.27,1.39,.14,1.4,.15,.96,1.49-.25,.76,.29,1.09,.75,1.46,.31,.25,.75,.31,.98-.05,.35-.54,0-.99-.36-1.41-.17-.2-.34-.41-.44-.65-.12-.3-.05-.69,.29-.73,1.24-.15,2.43-1,3.73-.24,.39,.23,.86,.19,1.23-.08,.53-.38,1.11-.38,1.71-.38,.68,0,1.45,.47,1.99-.35,1.62,.09,3.31-.48,4.86,.43,.48,.28,.93,.33,1.35-.11,.99-1.06,1.6-1.07,2.72-.05,.32,.29,.67,.42,1.09,.3,.67-.18,1.38-.31,1.93-.75,1.59-1.27,3.3-1.07,5.06-.47,.59,.2,1.27,.35,1.58-.31,.24-.5,.54-.48,.93-.49,1.29-.04,2.58,.11,3.87-.13,.47-.09,.87,.05,1.03,.55,.17,.5-.19,.71-.54,.93-.91,.57-1.6,1.28-1.7,2.42-.59,.37-1.23,.39-1.91,.38-1.33-.02-2.76-.31-3.96,.09-2.26,.74-4.58,.02-6.75,.54-2.21,.53-4.43,.08-6.56,.5-2.3,.46-4.66,0-6.86,.54-2.12,.52-4.27-.09-6.31,.56-1.94,.62-4.01-.08-5.87,.49-2.46,.76-4.98,.06-7.42,.75-1.5,.42-3.11-.01-4.66,.17-1.69,.2-3.4,.72-5.08,.34-1.5-.34-3.06-.16-4.51-.71-.06-.02-.13-.05-.19-.04-1.56,.16-3.02-.42-4.54-.57-1.36-.13-1.81-.45-2.09-1.75-.16-.74,.61-2.09,1.39-2.41,5.06-2.05,10.12-4.11,15.19-6.13,4.52-1.8,9.06-3.56,13.59-5.32,4.35-1.7,8.71-3.37,13.06-5.07,4.83-1.88,9.65-3.78,14.48-5.66,3.82-1.48,7.65-2.94,11.48-4.42,5.37-2.07,10.75-4.1,16.09-6.24,3.11-1.25,6.26-2.4,9.39-3.61,5.63-2.18,11.27-4.33,16.89-6.51,2.75-1.07,5.52-2.07,8.28-3.11Z"/>
        <path class="cls-1" d="M382.4,149.74c-1.5,1.68-3.13,3.26-4.88,4.65-1.24,.99-2.43,2.07-3.73,2.97-2.62,1.83-5.23,3.68-7.99,5.33-2.74,1.64-5.53,3.17-8.42,4.51-3.9,1.82-7.91,3.38-12.05,4.6-1.36,.4-2.72,.91-4.08,1.19-1.45,.29-2.88,.72-4.34,.98-.93,.16-2.02,0-2.88,.62-.05,.04-.13,.06-.19,.06-1.26-.11-2.45,.3-3.67,.44-5.04,.57-10.12,.51-15.18,.37-2.41-.07-4.85-.25-7.26-.73-1.16-.23-2.4-.24-3.58-.48-1.54-.31-3.08-.62-4.61-.98-1.68-.39-3.32-.87-4.97-1.34-3.33-.96-6.61-2.08-9.74-3.61,.06-.31-.81-.42-.23-.81,.63-.43,.99-1.04,1.37-1.65,.3-.48,.67-.6,1.23-.59,.75,.02,1.44,.46,2.2,.29,1.51,.24,2.9,.87,4.32,1.37,2.23,.78,4.51,1.39,6.81,1.94,1.78,.43,3.58,.75,5.38,1.09,2.61,.49,5.25,.57,7.85,.91,3.47,.45,6.93,.36,10.38,.2,1.82-.09,3.68-.13,5.48-.39,1.86-.27,3.78-.4,5.58-.85,3.65-.93,7.34-1.7,10.92-2.97,3.3-1.17,6.57-2.38,9.72-3.87,3.54-1.68,6.96-3.59,10.23-5.77,2.02-1.35,3.98-2.77,5.92-4.24,.89-.68,1.61-1.59,2.54-2.13,1.91-1.11,3.05-3.06,4.9-4.2,1.81,.09,2.44,1.51,3.17,2.82,0,0-.01-.03-.01-.03-.07,.11-.14,.21-.21,.32Z"/>
        <path class="cls-1" d="M337.28,160.41c-.15,.29-.48,.39-.73,.4-1.89,.13-3.74,.64-5.6,.94-1.5,.25-3.01,.18-4.47,.45-3.94,.73-7.89,.14-11.84,.36-1.81-.84-3.8-.19-5.69-.74-1.08-.31-2.33-.53-3.54-.49-.83,.02-1.59-.35-2.36-.54-2.46-.6-4.91-1.25-7.31-2.08-3.35-1.15-6.62-2.49-9.79-4.07-2.67-1.33-5.26-2.79-7.72-4.49-1.5-1.03-3.13-1.89-4.43-3.2-.19-.19-.56,0-.68-.32,.63-.1,.8-.5,.7-1.07-.1-.56-.51-.71-1.01-.72-.53-.01-1.05,0-1.54,.21-2.9-2.36-5.61-4.94-8.07-7.75-3.04-3.46-5.94-7.05-8.26-11.07-.41-.71-.86-1.4-1.29-2.1-.54-.87-.44-2.4,.19-3.03,.71-.71,2.07-.77,3.02-.19,.58,.36,.75,1.01,1.03,1.52,1.73,3.15,3.86,6.02,6.09,8.81,2.39,2.99,5.02,5.8,7.91,8.34,1.01,.89,1.89,1.95,2.99,2.69,1.33,.9,2.52,1.98,3.87,2.83,1.91,1.2,3.78,2.46,5.75,3.56,2.83,1.58,5.71,3.05,8.71,4.27,2.66,1.08,5.38,2.04,8.16,2.77,3.1,.81,6.24,1.43,9.42,1.9,1.55,.23,3.11,.03,4.61,.33,2.14,.43,4.28,.28,6.42,.27,1.8,0,3.65-.1,5.4-.37,1.97-.3,4.02-.27,5.95-.99,.55-.2,1.24-.11,1.84-.3,.49,1,1.14,1.88,1.99,2.66-1.88-.48-3.38-2.17-5.55-1.5,.1,.41,.39,.66,.69,.92,1.48,1.28,3.02,2.37,5.15,1.78Z"/>
        <path class="cls-1" d="M314.7,149.38c-2.16-.26-4.36-.36-6.48-.82-3.08-.67-6.14-1.42-9.12-2.48-2.72-.97-5.38-2.05-7.93-3.39-1.68-.88-3.28-1.92-4.92-2.89-2.33-1.37-4.41-3.07-6.5-4.72-1.96-1.54-3.77-3.31-5.45-5.19-2.21-2.47-4.35-5-6.16-7.77-.77-1.18-1.61-2.34-2.2-3.64-.52-1.15-.23-2.45,.71-2.91,1.18-.59,2.61-.13,3.26,.93,1.76,2.86,3.76,5.54,5.9,8.14,2.03,2.46,4.26,4.7,6.67,6.74,2.6,2.2,5.38,4.21,8.35,5.9,3.21,1.83,6.57,3.32,10.03,4.59,3.09,1.13,6.29,1.85,9.51,2.47,1.76,.34,3.65,.21,5.37,.54,2.15,.41,4.31,.55,6.33,.19,1.95-.35,3.89-.11,5.83-.53,1.35-.29,2.76-.46,4.11-.79,.74-.19,1.45-.4,2.21-.37-.18,.39-.54,.42-.9,.51-.7,.18-1.64,.19-2.02,.65-.93,1.13-1.98,.97-3.14,.73-.25-.05-.52-.08-.78-.06-.27,.02-.53,.11-.61,.41-.07,.26,.08,.45,.28,.59,.47,.31,.74,.67,.71,1.3-.02,.55-.25,.92-.72,1.23,.74,.25,1.42-.15,2.05,.19-.09,.04-.17,.11-.27,.12-4.63,.44-9.27,.59-13.91,.38,.1-.09,.19-.19,.3-.25,.36-.22,.87-.41,.44-.94-.36-.44-.74-.31-1.18,.03-.83,.63,.08,.78,.25,1.13Zm-1.45-2.3c.14-1.55-.31-2.09-1.38-1.64-.77,.32-1.32,2.49-.78,3.08,.06,.07,.17,.09,.26,.12,1.1,.41,1.79-.03,1.86-1.16,0-.13,.02-.26,.03-.4Zm10.57-.09c.75,.02,1.73-.72,1.72-1.23-.02-.53-.44-.52-.8-.51-.76,.02-1.39,.31-1.54,1.13-.09,.48,.31,.59,.62,.61Zm-3.12,1.84c1.07,.28,1.94,.26,2.65-.04-.9-.77-1.71-.77-2.65,.04Zm-3.88,.23s0,.05,0,.08h2.92s0-.05,0-.08h-2.92Z"/>
        <path class="cls-1" d="M323.35,122.3c-1.03-.21-1.99,.48-2.95,.37-2.28-.26-4.58-.29-6.86-.67-2.06-.34-4.05-.85-5.99-1.54-2.85-1.01-5.5-2.42-8.02-4.15-2.74-1.88-5.1-4.12-7.33-6.54-.73-.79-1.3-1.64-.84-2.75,.89-2.14,3.29-1.68,4.27-.38,.89,1.18,1.95,2.16,3,3.14,1.84,1.73,3.92,3.15,6.13,4.37,2.77,1.53,5.7,2.7,8.81,3.3,1.2,.23,2.41,.64,3.69,.42,1.01-.17,1.85,.62,2.91,.47,4.75-.68,9.5-1.33,13.74-3.87,1.57-.94,3.09-1.93,4.56-3.05,3.08-2.33,5.49-5.17,7.48-8.43,.75-1.22,2.01-1.6,3.34-1.08,.71,.27,1.14,1.74,.85,2.73-.2,.68-.67,1.2-1.03,1.78-2.09,3.44-4.83,6.27-8,8.75-2.96,2.33-6.17,4.12-9.69,5.38-1.72,.61-3.47,1.08-5.28,1.38-.93,.15-1.83,.45-2.79,.35Z"/>
        <path class="cls-1" d="M289.42,165.56c-.77,.17-1.45-.27-2.2-.29-.56-.01-.93,.11-1.23,.59-.38,.61-.74,1.22-1.37,1.65-.58,.39,.28,.5,.23,.81-1.78-.66-3.49-1.47-5.15-2.37-2.11-1.14-4.25-2.22-6.27-3.52-1.95-1.25-3.9-2.49-5.81-3.79-1.79-1.22-3.37-2.67-5.09-3.96-3.03-2.27-5.59-5.04-8.24-7.68-1.2-1.2-2.36-2.54-3.41-3.92-1.13-1.48-2.38-2.88-3.51-4.36-.97-1.27-1.9-2.57-2.67-3.98,.34-.09,.78-.08,1.02-.29,.63-.57,1.35-.89,2.14-1.12,.33-.09,.52-.38,.73-.63,1.01,1.13,1.8,2.43,2.7,3.64,.93,1.26,1.91,2.49,2.93,3.66,2.27,2.6,4.52,5.21,7.08,7.53,1.93,1.74,3.86,3.47,5.91,5.09,2.36,1.87,4.81,3.59,7.34,5.2,3.58,2.28,7.32,4.28,11.2,6.01,1.24,.55,2.47,1.14,3.7,1.71Z"/>
        <path class="cls-1" d="M329.46,135.25c-.11,.12-.23,.24-.42,.19-.7-.83-1.55-1.48-2.48-2.02-.98-.57-.99-1.37,0-1.98,.08-.41,.43-.34,.71-.39,2.73-.41,5.38-1.11,7.95-2.11,3.85-1.5,7.41-3.52,10.76-5.95,3.95-2.87,7.18-6.4,9.95-10.38,1.32-1.89,2.5-3.86,3.37-6.01,.47-1.18,1.81-1.85,2.99-1.54,1.11,.29,1.77,1.87,1.25,3.1-1.42,3.34-3.31,6.42-5.48,9.32-1.44,1.92-2.99,3.73-4.76,5.34-1.7,1.55-3.41,3.12-5.3,4.42-4.12,2.84-8.47,5.26-13.31,6.7-1.28,.38-2.59,.67-3.85,1.11-.49-.2-.96-.24-1.36,.2Z"/>
        <path class="cls-1" d="M314.7,135.82c-1.56,.19-3.07-.21-4.57-.5-2.24-.43-4.44-1.06-6.59-1.83-2.69-.96-5.26-2.15-7.75-3.57-2-1.14-3.84-2.45-5.68-3.83-2.35-1.76-4.42-3.78-6.41-5.89-1.8-1.91-3.28-4.1-4.78-6.25-.61-.88-.3-2.67,.48-3.16,1.15-.71,3-.33,3.53,.88,.43,.97,1.16,1.67,1.75,2.49,2.07,2.87,4.47,5.46,7.24,7.64,3.07,2.41,6.32,4.56,9.95,6.11,2.31,.98,4.64,1.88,7.07,2.48,1.31,.32,2.68,.55,4.03,.78,1.9,.32,3.83,.32,5.71,.75-.13,.35-.36,.57-.75,.52-1.09-.14-2,.22-3,.69-.86,.41-1.06,.97-1.23,1.71-.19,.86,.79,.53,.99,.99Z"/>
        <path class="cls-1" d="M364.79,142.22c.06-.32,.29-.53,.53-.7,3.4-2.39,6.16-5.44,8.84-8.59,1.82-2.13,3.48-4.37,5.07-6.67,1.74-2.52,3.28-5.16,4.58-7.93,.79-1.69,1.52-3.41,2.29-5.12,.54-1.2,1.89-1.74,3.02-1.21,1.14,.53,1.52,1.78,1.06,3.03-1.09,3-2.52,5.84-4.06,8.61-1.35,2.42-2.84,4.78-4.5,7.02-1.59,2.15-3.18,4.33-4.94,6.33-1.93,2.18-4.12,4.13-6.15,6.22-.86,.88-1.89,1.51-2.84,2.26,.13-.61,.21-1.23,.39-1.83,.16-.55,0-.87-.47-1.13-.9-.49-1.82-.76-2.81-.3Z"/>
        <path class="cls-1" d="M382.62,149.45c-.74-1.3-1.36-2.73-3.17-2.82,.73-.81,1.43-1.66,2.2-2.42,1.77-1.75,3.21-3.79,4.8-5.69,1.28-1.54,2.46-3.15,3.59-4.79,3.22-4.66,5.97-9.59,8.14-14.83,.24-.57,.45-1.16,.6-1.75,.46-1.81,2.41-2.07,3.65-1.53,.64,.28,1.05,1.98,.74,2.79-1.96,5.1-4.37,9.98-7.26,14.61-1.94,3.11-4.07,6.1-6.43,8.92-1.18,1.4-2.39,2.78-3.55,4.19-1.01,1.23-2.13,2.3-3.31,3.34Z"/>
        <path class="cls-1" d="M364.79,142.22c1-.46,1.91-.19,2.81,.3,.48,.26,.64,.59,.47,1.13-.18,.59-.27,1.22-.39,1.83-.06,.06-.12,.12-.17,.18-.15,.11-.29,.22-.44,.32-3.39,2.93-7.2,5.25-11.1,7.41-3.89,2.15-7.98,3.89-12.19,5.31-1.49,.5-2.98,.99-4.52,1.33-.66,.14-1.27,.46-1.98,.37-2.12,.59-3.67-.5-5.15-1.78-.3-.26-.59-.51-.69-.92,2.16-.67,3.67,1.02,5.55,1.5-.85-.78-1.5-1.66-1.99-2.66,3.02-.77,6.02-1.61,8.96-2.68,3-1.1,5.9-2.42,8.75-3.86,2.52-1.28,4.94-2.74,7.27-4.34,1.62-1.12,3.21-2.29,4.81-3.44Z"/>
        <path class="cls-1" d="M280,96.63c.23,0,.46,0,.69,.03,.31,.04,.77-.14,.85,.27,.07,.42-.1,.91-.58,1.03-1.27,.32-2.23,1.27-3.48,1.62-.25,.07-.6,.24-.57,.48,.13,.98-.57,.7-1.06,.77-.79,.12-1.66-.3-2.35,.39-.33,0-.66,0-1,.01-.7-.43-1.48,.26-2.25-.14,.41-.35,.78-.66,1.15-.97,.34-.28,.53-.6,.27-1.03-.29-.47-.72-.46-1.13-.24-.75,.42-1.47,.88-2.38,.87-.11,0-.31,.12-.31,.21-.14,1.33-1.19,1.51-2.18,1.78-.05,.01-.08,.1-.12,.15-.28,.54-.8,.38-1.23,.4-.96,.03-1.98-.21-2.86,.05-2.26,.67-4.62,.08-6.89,.74-1.32,.38-2.82,.15-4.24,.2-.29,.01-.59,.06-.88,.09,0,0-.07,.03-.07,.03,0,0-.05,.02-.05,.02-.43-.06-.85-.13-1.28-.16-1.09-.09-1.31-.6-.79-1.59,.42-.81,1.17-1.05,1.88-1.47,2.3-1.38,4.66-1.43,7.13-.68,.38,.11,.75,.11,1.03-.17,1.03-1.01,2.18-.98,3.39-.45,.52,.23,.94,.15,1.34-.28,.27-.29,.62-.5,.93-.75,1.32-.06,2.71,.13,3.94-.24,2.63-.78,5.34-.12,7.99-.82,1.61-.43,3.41-.12,5.13-.15Z"/>
        <path class="cls-1" d="M262.94,97.84c-.31,.25-.66,.46-.93,.75-.4,.42-.82,.5-1.34,.28-1.22-.53-2.37-.56-3.39,.45-.28,.28-.65,.29-1.03,.17-2.47-.75-4.83-.7-7.13,.68-.71,.42-1.46,.66-1.88,1.47-.52,.99-.3,1.51,.79,1.59,.43,.03,.85,.11,1.28,.16-.26,.26-.58,.28-.92,.28-1.59,.01-3.17,.04-4.76,.06,.29-.4,.8-.19,1.16-.41-.55-.77-.13-1.06,.56-1.06,.79,0,1.22-.32,1.42-1.07,.08-.31,.29-.59,.47-.86,.4-.6,.17-.86-.47-.85-.29,0-.59,.08-.87,.15-1.07,.25-2.11,.97-3.26,.26-.1-.06-.26-.01-.39-.02-.72-.03-.88,.26-.54,.9,.29,.55,.72,1.02,.82,1.68,.11,.74-.14,1.16-.92,1.18-.49,.01-.97,0-1.46,0,.88,.37,1.84-.03,2.7,.45-1.27,.28-2.58-.05-3.84,.2-2.8,.56-5.64,.53-8.48,.61,.26-.54,.77-.44,1.22-.44,1.19-.01,2.39,0,3.58,0-.8,.04-1.41-.78-2.16-.63-2.78,.59-2.77,.62-3.32-2.12-.17-.82-.83-.61-1.36-.62-.3,0-.93,.01-.73,.36,.53,.94-.49,2.58,1.46,2.84-.63,.58-1.29,.21-1.81,.61h3.15c-.27,.43-.7,.41-1.13,.41-1.64,0-3.28-.1-4.91,.14,.1-1.13,.79-1.85,1.7-2.42,.35-.22,.71-.43,.54-.93-.17-.49-.56-.63-1.03-.55-1.28,.23-2.58,.09-3.87,.13-.39,.01-.7,0-.93,.49-.31,.66-.99,.51-1.58,.31-1.75-.6-3.47-.8-5.06,.47-.56,.44-1.26,.57-1.93,.75-.42,.11-.77-.01-1.09-.3-1.12-1.03-1.73-1.01-2.72,.05-.42,.44-.87,.39-1.35,.11-1.55-.9-3.24-.33-4.86-.43-.54,.83-1.31,.35-1.99,.35-.6,0-1.18,0-1.71,.38-.37,.27-.84,.31-1.23,.08-1.31-.75-2.5,.1-3.73,.24-.34,.04-.41,.43-.29,.73,.1,.24,.27,.45,.44,.65,.36,.42,.71,.87,.36,1.41-.23,.35-.67,.3-.98,.05-.46-.36-1-.7-.75-1.46,.44-1.35,.43-1.35-.96-1.49-.3-.03-.59-.09-.84-.27,1.79-.16,3.59-.12,5.36-.55,1.95-.47,3.97,.09,5.97-.41,1.91-.48,3.95-.11,5.96-.49,2.16-.41,4.46,.09,6.65-.56,.46,.12,.91,.13,1.36-.04,.67,0,1.34,0,2.01-.01,.4,.17,.79,.16,1.18-.02,.66-.17,1.31-.45,1.98-.48,2.07-.09,4.11-.06,6.19-.42,2.08-.35,4.26-.01,6.37-.53,1.86-.46,3.8,.13,5.68-.44,2.22-.67,4.56-.12,6.85-.68,1.88-.46,3.9-.15,5.88-.4,2.15-.28,4.36-.5,6.55-.51,1.46,0,2.86-.42,4.32-.39Zm-30.38,3.86c-.04-.25-.15-.47-.42-.45-.33,.02-.39,.31-.4,.58-.01,.26,.09,.48,.39,.43,.29-.05,.43-.27,.43-.57Z"/>
        <path class="cls-1" d="M366.9,127.96c-2.13,2.66-4.58,5.02-7.2,7.17-3,2.46-6.19,4.68-9.58,6.58-.54,.3-1.12,.54-1.68,.81-.21-.3-.48-.43-.85-.37-.22,.03-.5,.13-.6-.16-.08-.23,.18-.31,.32-.44,.6-.59,.55-1.16,0-1.79-.49-.56-1.17-.52-1.76-.75,2.65-1.39,5.24-2.89,7.67-4.64,1.59-1.14,3.1-2.41,4.61-3.68,1.56-1.32,2.96-2.78,4.4-4.22,.1,1.11-.08,2.07-1.08,2.79-.54,.39-.32,.8,.29,.96,.79,.2,1.64-.31,1.84-1.22,.18-.78,.72-1.07,1.29-.81,.89,.41,1.6,.24,2.35-.22Z"/>
        <path class="cls-1" d="M345.53,139c.59,.24,1.28,.19,1.76,.75,.55,.64,.6,1.2,0,1.79-.13,.13-.4,.2-.32,.44,.1,.29,.38,.19,.6,.16,.37-.05,.64,.07,.85,.37,0,0-.05,0-.05,0,0,0,0-.05,0-.05-.09,.08-.18,.16-.28,.25,0,0-.04-.05-.04-.05-.11,.07-.21,.14-.32,.21-1.97,1.22-4.14,2-6.29,2.82-2.94,1.13-5.99,1.89-9.04,2.64-1.1,.27-2.23,.4-3.34,.59-.62-.34-1.31,.06-2.05-.19,.47-.31,.7-.67,.72-1.23,.02-.63-.24-.99-.71-1.3-.2-.13-.34-.33-.28-.59,.08-.3,.35-.39,.61-.41,.26-.02,.53,0,.78,.06,1.15,.24,2.2,.41,3.14-.73,.38-.46,1.32-.47,2.02-.65,.36-.09,.72-.12,.9-.51,.7-.65,1.66-.57,2.49-.83,3.04-.94,5.94-2.21,8.82-3.54Z"/>
        <path class="cls-1" d="M365.45,122.69c.2-.73,.82-1.17,1.22-1.76,2.44-3.54,4.68-7.18,6.24-11.21,.6-1.54,1.95-2.13,3.47-1.52,.72,.29,1.31,2.07,.95,2.87-1.42,3.16-2.87,6.32-4.78,9.22-1.34,2.04-2.62,4.13-4.28,5.94-.28,.3-.22,.89-.78,.93-.12-.23-.19-.51-.36-.69-.63-.69-.47-1.23,.25-1.7,.14-.09,.29-.18,.39-.3,.39-.5,.8-1.03,.39-1.68-.35-.55-1.57-.67-2.11-.25-.2,.15-.35,.29-.61,.16Z"/>
        <path class="cls-1" d="M283.77,100.31c-1.18,.1-2.37,.22-3.59,.1,.2-.3,.51-.18,.75-.23,1.27-.26,2.23-.8,2.38-2.25,.04-.38,.28-.64,.65-.8,1.81-.8,3.67-1.22,5.67-1.07,.73,.06,1.27,.27,1.64,.91,.14,.25,.34,.5,.58,.66,.31,.22,.71,.53,1.08,.24,.36-.27-.03-.59-.13-.88-.21-.62,.06-.91,.66-.87,.59,.03,1.19-.05,1.74,.28,.16,.1,.4,.21,.56,.17,2.02-.53,1.97,1.34,2.67,2.31,.04,.05-.09,.23-.14,.35-2.8,.45-5.64,.4-8.46,.63-.82,0-1.69,.15-2.46-.06-1.29-.36-2.38,.19-3.54,.49l-.06,.03Z"/>
        <path class="cls-1" d="M248.57,132.71c-.21,.25-.41,.54-.73,.63-.79,.22-1.51,.55-2.14,1.12-.23,.21-.67,.2-1.02,.29-1.28-1.55-2.16-3.34-3.18-5.06-.4-.67-.77-1.32-.74-2.14,.04-.9,.33-1.59,1.22-1.91,.97-.36,2.37-.1,2.76,.67,1.15,2.22,2.62,4.24,3.83,6.42Z"/>
        <path class="cls-1" d="M365.45,122.69c.25,.14,.41,0,.61-.16,.54-.43,1.76-.3,2.11,.25,.41,.65,0,1.19-.39,1.68-.1,.13-.25,.21-.39,.3-.72,.48-.89,1.01-.25,1.7,.17,.18,.24,.46,.36,.69,0,0,0-.04,0-.04-.07,.07-.15,.14-.22,.22,0,0,.02-.02,.02-.02-.07,.08-.14,.16-.21,.24,0,0,.04-.03,.05-.03-.08,.15-.16,.29-.23,.44h.01c-.75,.46-1.46,.63-2.35,.22-.57-.26-1.12,.02-1.29,.81-.2,.91-1.05,1.42-1.84,1.22-.62-.15-.84-.57-.29-.96,1-.72,1.18-1.68,1.08-2.79,0,0,0,0,0,0,2.14-.51,3.07-1.61,2.83-3.33,.14-.14,.27-.29,.41-.43Z"/>
        <path class="cls-1" d="M326.56,131.44c-.99,.6-.99,1.41,0,1.98,.93,.54,1.78,1.19,2.48,2.02-1.26,.16-2.49,.56-3.78,.36,.49-1.05,.28-2.06-.51-2.53-1.27-.75-2.39-.72-2.85,.31-.41,.92-1.07,1.16-1.9,1.32-.35,.07-.8,.18-.71,.65,.08,.41,.53,.32,.84,.32,1.59,.02,3.18,.02,4.76,.02-.15,.28-.39,.28-.67,.28-2.86,0-5.72,.03-8.58,.03-.28,0-.61,.08-.77-.28,.57-.26,1.28,.2,1.73-.17,1.03-.86,2.48-.77,3.49-1.83,.61-.65,1.1-1.12,.99-2.03,1.82-.25,3.63-.6,5.48-.47Zm.76,3.88c-.23-.08-.3-.13-.38-.12-.09,0-.21,.04-.25,.11-.07,.12,.06,.16,.15,.15,.11-.01,.22-.06,.48-.13Z"/>
        <path class="cls-1" d="M321.08,131.91c.12,.9-.37,1.38-.99,2.03-1,1.06-2.45,.97-3.49,1.83-.45,.37-1.16-.09-1.73,.17-.06-.04-.12-.08-.17-.12-.2-.46-1.18-.14-.99-.99,.17-.74,.37-1.3,1.23-1.71,.99-.47,1.91-.82,3-.69,.38,.05,.62-.17,.75-.52,.2,0,.4,0,.6,0l.1,.02h.1c.33-.01,.67-.01,1-.01h.1s.1,0,.1,0h.4Z"/>
        <path class="cls-1" d="M242.85,104.07c-.85-.47-1.82-.08-2.7-.45,.49,0,.97,.01,1.46,0,.78-.02,1.03-.44,.92-1.18-.1-.65-.53-1.13-.82-1.68-.34-.64-.18-.93,.54-.9,.13,0,.29-.04,.39,.02,1.16,.71,2.19-.01,3.26-.26,.29-.07,.58-.14,.87-.15,.64,0,.87,.25,.47,.85-.18,.27-.39,.55-.47,.86-.2,.76-.64,1.07-1.42,1.07-.69,0-1.11,.29-.56,1.06-.36,.21-.88,0-1.16,.41-.2,.26-.48,.32-.78,.33Z"/>
        <path class="cls-1" d="M324.89,135.9c-1.59,0-3.18,0-4.76-.02-.31,0-.76,.09-.84-.32-.09-.47,.36-.58,.71-.65,.84-.16,1.49-.4,1.9-1.32,.46-1.03,1.59-1.06,2.85-.31,.8,.47,1,1.48,.51,2.53-.12,.03-.25,.06-.37,.1Z"/>
        <path class="cls-1" d="M265.54,101.87c.04-.05,.07-.14,.12-.15,.99-.27,2.04-.45,2.18-1.78,0-.08,.21-.21,.31-.21,.91,.01,1.63-.45,2.38-.87,.41-.23,.84-.23,1.13,.24,.26,.43,.07,.75-.27,1.03-.37,.31-.74,.62-1.15,.97,.77,.4,1.55-.29,2.25,.14-2.28,.6-4.62,.59-6.96,.63Z"/>
        <path class="cls-1" d="M365.04,123.12c.24,1.73-.7,2.83-2.83,3.33,.94-1.11,1.89-2.22,2.83-3.33Z"/>
        <path class="cls-1" d="M271.27,145.06c.5-.21,1.02-.22,1.54-.21,.5,.01,.91,.16,1.01,.72,.1,.57-.08,.97-.7,1.07-.62-.53-1.24-1.05-1.86-1.58Z"/>
        <path class="cls-1" d="M283.83,100.28c1.16-.3,2.24-.84,3.54-.49,.77,.21,1.64,.05,2.46,.06-.36,.23-.73,.38-1.18,.37-1.6,0-3.21,.03-4.81,.05Z"/>
        <path class="cls-1" d="M314.7,149.38c-.16-.35-1.08-.5-.25-1.13,.45-.34,.82-.47,1.18-.03,.44,.53-.07,.72-.44,.94-.11,.07-.2,.17-.3,.25-.07-.01-.14-.02-.2-.03Z"/>
        <path class="cls-1" d="M329.46,135.25c.4-.43,.87-.4,1.36-.2-.45,.07-.91,.13-1.36,.2Z"/>
        <path class="cls-1" d="M367.07,145.98c.15-.11,.29-.22,.44-.32-.07,.21-.2,.34-.44,.32Z"/>
        <path class="cls-1" d="M366.89,127.97c.08-.15,.16-.29,.23-.44,.07,.22-.08,.33-.23,.44Z"/>
        <path class="cls-1" d="M278.07,58.05c-.11,.06-.21,.12-.32,.18,.07-.13,.16-.21,.32-.18Z"/>
        <path class="cls-1" d="M367.08,127.55c.07-.08,.14-.16,.21-.24-.02,.12-.02,.26-.21,.24Z"/>
        <path class="cls-1" d="M320.68,131.92l-.1,.02h-.1c.06-.04,.13-.04,.19-.02Z"/>
        <path class="cls-1" d="M319.48,131.92h-.1s-.1,0-.1,0c.06-.03,.13-.02,.19,0Z"/>
        <path class="cls-1" d="M348.11,142.71c.09-.08,.18-.16,.28-.25,.01,.2-.13,.22-.28,.25Z"/>
        <path class="cls-1" d="M347.75,142.87c.11-.07,.21-.14,.32-.21-.05,.16-.17,.21-.32,.21Z"/>
        <path class="cls-1" d="M367.26,127.34c.07-.07,.15-.14,.22-.22-.02,.13-.09,.2-.22,.22Z"/>
        <path class="cls-1" d="M249.36,103.38s.07-.03,.07-.03l-.07,.03Z"/>
        <path class="cls-1" d="M382.4,149.74c.07-.11,.14-.21,.21-.32-.07,.11-.14,.21-.21,.32Z"/>
        <path class="cls-1" d="M355.49,24.2c-.73-.72-1.45-1.43-2.18-2.15,.25-.46,.48-.93,.77-1.38,.29-.45,.74-.51,1.22-.39,.55,.14,.46,.53,.35,.94-.14,.54,.24,.84,.6,1.14,.28,.23,.84,.23,.71,.8-.11,.47-.51,.65-.92,.81-.18,.07-.37,.15-.55,.22Z"/>
        <path class="cls-1" d="M313.25,147.08c-.01,.13-.02,.26-.03,.4-.07,1.13-.77,1.57-1.86,1.16-.09-.03-.2-.06-.26-.12-.54-.59,.01-2.76,.78-3.08,1.07-.44,1.52,.1,1.38,1.64Z"/>
        <path class="cls-1" d="M323.82,147c-.31-.02-.71-.13-.62-.61,.15-.82,.78-1.1,1.54-1.13,.36-.01,.78-.03,.8,.51,.02,.51-.97,1.24-1.72,1.23Z"/>
        <path class="cls-1" d="M320.7,148.84c.94-.81,1.75-.81,2.65-.04-.72,.3-1.59,.32-2.65,.04Z"/>
        <path class="cls-1" d="M316.82,149.07h2.92s0,.05,0,.08h-2.92s0-.05,0-.08Z"/>
        <path class="cls-1" d="M230.55,104.87h-3.15c.52-.4,1.19-.03,1.81-.61-1.95-.26-.93-1.89-1.46-2.84-.2-.35,.43-.37,.73-.36,.53,.02,1.19-.2,1.36,.62,.55,2.74,.54,2.71,3.32,2.12,.75-.16,1.36,.67,2.16,.63-1.19,0-2.39,0-3.58,0-.45,0-.96-.1-1.22,.44,0,0,.02,0,.02,0Z"/>
        <path class="cls-1" d="M232.56,101.7c0,.3-.14,.52-.43,.57-.3,.05-.4-.18-.39-.43,.01-.27,.07-.56,.4-.58,.27-.02,.39,.2,.42,.45Z"/>
        <path class="cls-1" d="M214.58,101.75c.45-.14,.91-.1,1.36-.04-.45,.17-.9,.15-1.36,.04Z"/>
        <path class="cls-1" d="M217.95,101.69c.39,0,.79-.01,1.18-.02-.39,.18-.79,.18-1.18,.02Z"/>
        <path class="cls-1" d="M327.32,135.32c-.26,.07-.37,.12-.48,.13-.09,0-.21-.03-.15-.15,.03-.06,.16-.1,.25-.11,.07,0,.15,.05,.38,.12Z"/>
      </g>
    </g>
  </g>
</svg>