<?xml version="1.0" encoding="UTF-8"?>
<svg id="Camada_2" data-name="Camada 2" xmlns="http://www.w3.org/2000/svg" viewBox="0 0 756.21 125.65">
  <defs>
    <style>
      .cls-1 {
        fill: #2f2d7e;
      }
    </style>
  </defs>
  <g id="Camada_1-2" data-name="Camada 1">
    <g>
      <g>
        <path class="cls-1" d="M233.65,92.37V26.38h17.44c.24,1.32,.5,2.72,.82,4.5,13.19-8.23,25.83-8.52,36.27,2,6.52-2.7,12.17-6.46,18.22-7.28,18.45-2.51,29.41,6.92,30.49,26,.71,12.63,.24,25.32,.04,37.99-.02,1.09-1.93,3-3.07,3.08-4.79,.35-9.62,.15-15.24,.15,0-2.31,0-4.21,0-6.11,0-10.67,.07-21.33-.04-32-.09-9.57-3.01-13.4-10.13-13.71-8.31-.36-13.49,4.28-13.82,13.48-.41,11.48-.14,22.99-.17,34.49,0,.99-.1,1.98-.18,3.38h-17.91c0-6.6,.05-13.2-.01-19.8-.06-7.16,.2-14.36-.46-21.46-.66-7.08-4.22-9.98-10.64-10.09-6.77-.12-11.91,3.6-12.78,10.09-.72,5.42-.66,10.96-.73,16.44-.11,8.14-.03,16.29-.03,24.86h-18.06Z"/>
        <path class="cls-1" d="M660.82,31.59v-5.22h18.19c.09,1.88,.24,3.5,.24,5.12,.01,18.81-.12,37.62,.09,56.42,.04,4.02-1.15,5.4-5.07,4.98-2.63-.29-5.33-.23-7.98-.03-3.92,.3-6.95-.09-4.91-6.51-8.1,7.19-16.5,8.85-25.52,7.45-7.66-1.18-14.05-5.01-19.16-10.78-10.68-12.07-11.18-32.58-1.24-45.3,10.99-14.06,26.42-16.18,45.37-6.12Zm-17.31,9.54c-10.09,.08-17.14,7.74-17.13,18.61,.01,10.48,7.69,18.52,17.52,18.35,10.27-.18,17.44-7.77,17.41-18.44-.03-10.96-7.38-18.6-17.81-18.52Z"/>
        <path class="cls-1" d="M149.17,59.66c.14-20.39,14.99-34.71,35.79-34.53,19.21,.17,34.67,15.64,34.54,34.55-.13,19.99-15.43,34.63-35.99,34.42-19.61-.19-34.48-15.11-34.35-34.45Zm52.26-.05c-.03-10.83-7.24-18.49-17.36-18.46-9.89,.03-17.59,8.09-17.67,18.47-.07,10.11,7.92,18.5,17.64,18.51,9.99,.01,17.42-7.91,17.39-18.52Z"/>
        <path class="cls-1" d="M695.73,26.24h17.74c.33,1.51,.63,2.92,1.01,4.67,.73-.42,1.41-.72,2.01-1.15,12.67-9.11,30.3-5.21,37.11,8.42,1.38,2.76,2.4,6.01,2.45,9.05,.25,14.95,.11,29.91,.11,45.21h-17.9c0-11.17,.06-22.27-.04-33.36-.03-3.14-.2-6.34-.83-9.41-1.26-6.04-3.98-8.39-9.23-8.63-6.94-.31-11.21,2.03-12.91,7.74-.89,2.97-1.19,6.21-1.23,9.33-.14,11.3-.05,22.59-.05,34.25h-18.25V26.24Z"/>
        <path class="cls-1" d="M372.25,92.5h-17.83V26.51h17.56c.19,1.35,.38,2.76,.6,4.3,.47-.14,.99-.17,1.36-.42,18.67-12.52,38.86-3.85,40.82,18.4,1.27,14.33,.24,28.86,.24,43.65h-18.44c0-7.82,.02-15.28,0-22.74-.02-5.83,.05-11.66-.16-17.49-.26-6.92-3.16-10.63-8.36-11.19-7.62-.82-13.35,2.59-14.98,9.23-.62,2.55-.76,5.27-.78,7.91-.08,11.3-.03,22.6-.03,34.34Z"/>
        <path class="cls-1" d="M519.64,34.61c-3.09,4.31-5.98,8.33-9.06,12.63-2.78-1.48-5.24-3.45-8.01-4.1-4.43-1.04-9.07-1.62-13.6-1.49-1.59,.05-3.11,2.78-4.66,4.28,1.53,1.35,2.86,3.37,4.63,3.9,3.96,1.19,8.18,1.44,12.21,2.43,3.36,.82,6.74,1.86,9.87,3.32,7.84,3.65,11.7,10.32,11.09,18.41-.68,8.96-6.16,15.73-14.6,18.2-15.69,4.6-29.77,1.3-43.22-8.52,3.03-4.27,5.87-8.26,8.47-11.92,6.1,2.06,11.78,4.33,17.65,5.8,2.75,.69,6.01,.29,8.79-.49,1.68-.47,2.88-2.63,4.3-4.04-1.41-1.39-2.59-3.55-4.27-4.05-6.35-1.91-12.9-3.1-19.28-4.9-8.98-2.54-14.49-9.55-14.56-18-.08-8.92,5.15-16.14,14.21-18.84,14.42-4.3,27.84-2.62,40.04,7.38Z"/>
        <path class="cls-1" d="M598.78,44.51c-2.05,.9-3.91,1.61-5.67,2.51-5.75,2.92-10.5,4.24-15.75-2.15-4.38-5.34-12.69-4.89-18.9-1.09-6.24,3.82-9.47,11.6-7.95,19.57,1.37,7.15,5.43,12.02,12.57,14.02,7.14,2,13.3,0,17.99-5.45,2.15-2.5,3.84-3.03,6.7-1.77,3.6,1.58,7.33,2.85,11,4.25-5.86,14.56-21.92,22.62-37.98,19.37-16.88-3.41-28.61-17.46-28.56-34.18,.05-16.71,11.76-30.9,28.06-34.01,15.85-3.03,33.21,5.32,38.49,18.92Z"/>
        <path class="cls-1" d="M450.76,92.54h-18.11V26.51h18.11V92.54Z"/>
        <path class="cls-1" d="M451.42,9.98c-.05,5.55-3.77,9.19-9.42,9.21-5.77,.02-10.22-4.35-10.05-9.88,.16-5.31,4.66-9.43,10.15-9.31,5.65,.12,9.38,4.12,9.33,9.98Z"/>
      </g>
      <g>
        <path class="cls-1" d="M154.06,125.54v-15.4h.95l7.15,12.34h-.51l7.13-12.34h.92l.02,15.4h-1.1l-.02-13.71h.31l-6.75,11.66h-.55l-6.78-11.66h.33v13.71h-1.1Z"/>
        <path class="cls-1" d="M175.82,125.54l7.08-15.4h1.12l7.08,15.4h-1.21l-6.69-14.7h.48l-6.67,14.7h-1.21Zm2.6-4.33l.37-.95h9.22l.37,.95h-9.97Z"/>
        <path class="cls-1" d="M197.2,125.54v-15.4h5.52c1.29,0,2.4,.21,3.32,.62,.92,.41,1.64,1,2.13,1.77,.5,.77,.75,1.71,.75,2.8s-.25,2-.75,2.77c-.5,.78-1.21,1.37-2.13,1.78-.92,.41-2.03,.62-3.32,.62h-4.91l.51-.53v5.57h-1.12Zm1.12-5.5l-.51-.55h4.91c1.66,0,2.92-.36,3.77-1.09,.86-.73,1.29-1.75,1.29-3.07s-.43-2.37-1.29-3.09c-.86-.73-2.12-1.09-3.77-1.09h-4.91l.51-.55v9.44Z"/>
        <path class="cls-1" d="M216.01,125.54v-15.4h5.52c1.29,0,2.4,.21,3.32,.62,.92,.41,1.64,1,2.13,1.77,.5,.77,.75,1.71,.75,2.8s-.25,2-.75,2.77c-.5,.78-1.21,1.37-2.13,1.78-.92,.41-2.03,.62-3.32,.62h-4.91l.51-.53v5.57h-1.12Zm1.12-5.5l-.51-.55h4.91c1.66,0,2.92-.36,3.77-1.09,.86-.73,1.29-1.75,1.29-3.07s-.43-2.37-1.29-3.09c-.86-.73-2.12-1.09-3.77-1.09h-4.91l.51-.55v9.44Z"/>
        <path class="cls-1" d="M234.82,125.54v-15.4h1.12v15.4h-1.12Z"/>
        <path class="cls-1" d="M244.61,125.54v-15.4h.95l10.98,14.01h-.51v-14.01h1.12v15.4h-.92l-11-14.01h.51v14.01h-1.12Z"/>
        <path class="cls-1" d="M272.4,125.65c-1.16,0-2.23-.19-3.21-.58s-1.84-.94-2.56-1.64c-.73-.7-1.29-1.53-1.68-2.47s-.59-1.98-.59-3.11,.2-2.17,.59-3.11c.4-.95,.96-1.77,1.69-2.47s1.59-1.25,2.56-1.64c.98-.39,2.05-.58,3.22-.58s2.15,.18,3.1,.53c.95,.35,1.77,.88,2.44,1.58l-.7,.75c-.67-.66-1.41-1.13-2.21-1.41-.8-.28-1.67-.42-2.61-.42-1,0-1.92,.17-2.77,.51-.85,.34-1.59,.81-2.22,1.43-.63,.62-1.12,1.33-1.46,2.16-.34,.82-.52,1.72-.52,2.68s.17,1.86,.52,2.68c.34,.82,.83,1.54,1.46,2.16,.63,.62,1.37,1.09,2.22,1.43,.85,.34,1.77,.51,2.77,.51,.91,0,1.77-.14,2.58-.42s1.56-.74,2.23-1.39l.64,.86c-.69,.66-1.51,1.16-2.48,1.49-.96,.33-1.97,.5-3.02,.5Zm5.5-1.98l-1.08-.13v-5.63h1.08v5.76Z"/>
        <path class="cls-1" d="M298.03,125.54v-14.39h-5.54v-1.01h12.21v1.01h-5.54v14.39h-1.12Z"/>
        <path class="cls-1" d="M310.76,125.54v-15.4h1.12v15.4h-1.12Zm.99-7.33v-.99h10.56v.99h-10.56Zm10.43,7.33v-15.4h1.12v15.4h-1.12Z"/>
        <path class="cls-1" d="M331.97,125.54v-15.4h10.3v1.01h-9.17v13.38h9.5v1.01h-10.63Zm.99-7.33v-.99h8.34v.99h-8.34Z"/>
        <path class="cls-1" d="M364.97,125.65c-1.91,0-3.41-.56-4.51-1.67-1.1-1.12-1.65-2.77-1.65-4.97v-8.87h1.12v8.82c0,1.92,.44,3.34,1.32,4.27,.88,.92,2.13,1.39,3.74,1.39s2.84-.46,3.72-1.39c.88-.92,1.32-2.35,1.32-4.27v-8.82h1.12v8.87c0,2.2-.55,3.86-1.65,4.97-1.1,1.11-2.61,1.67-4.53,1.67Z"/>
        <path class="cls-1" d="M379.69,125.54v-15.4h.95l10.98,14.01h-.51v-14.01h1.12v15.4h-.92l-11-14.01h.51v14.01h-1.12Z"/>
        <path class="cls-1" d="M404.95,125.65c-1.14,0-2.23-.19-3.25-.58-1.02-.39-1.81-.89-2.37-1.51l.51-.84c.53,.54,1.25,1,2.17,1.38s1.89,.56,2.92,.56,1.87-.14,2.52-.41c.65-.27,1.14-.63,1.45-1.09,.32-.45,.47-.96,.47-1.52,0-.66-.18-1.19-.53-1.58-.35-.4-.81-.71-1.39-.95-.57-.23-1.2-.43-1.87-.59-.67-.16-1.36-.33-2.05-.52-.69-.18-1.32-.42-1.89-.71-.57-.29-1.03-.69-1.38-1.2s-.52-1.16-.52-1.97c0-.73,.19-1.41,.57-2.02,.38-.62,.97-1.11,1.78-1.5,.81-.38,1.84-.57,3.1-.57,.85,0,1.69,.12,2.52,.37,.83,.25,1.54,.59,2.12,1.01l-.42,.9c-.65-.44-1.34-.77-2.08-.98-.74-.21-1.46-.32-2.14-.32-.98,0-1.8,.14-2.44,.42-.65,.28-1.12,.65-1.43,1.11s-.46,.98-.46,1.55c0,.66,.17,1.19,.52,1.58,.34,.4,.8,.71,1.38,.95,.57,.24,1.2,.43,1.89,.59,.69,.16,1.37,.33,2.05,.52,.67,.18,1.3,.42,1.87,.71,.57,.29,1.03,.69,1.39,1.19,.35,.5,.53,1.14,.53,1.94,0,.72-.2,1.39-.59,2.01-.4,.62-1,1.12-1.81,1.5-.81,.37-1.86,.56-3.13,.56Z"/>
        <path class="cls-1" d="M417.59,125.54v-15.4h10.3v1.01h-9.17v13.38h9.5v1.01h-10.63Zm.99-7.33v-.99h8.34v.99h-8.34Z"/>
        <path class="cls-1" d="M435.61,125.54v-15.4h10.3v1.01h-9.17v13.38h9.5v1.01h-10.63Zm.99-7.33v-.99h8.34v.99h-8.34Z"/>
        <path class="cls-1" d="M453.63,125.54v-15.4h.95l10.98,14.01h-.51v-14.01h1.12v15.4h-.92l-11-14.01h.51v14.01h-1.12Z"/>
        <path class="cls-1" d="M474.36,125.63c-.25,0-.47-.09-.65-.27-.18-.18-.27-.41-.27-.67s.09-.48,.27-.66c.18-.18,.4-.26,.65-.26s.46,.09,.65,.26c.18,.18,.28,.4,.28,.66s-.09,.49-.28,.67c-.18,.18-.4,.27-.65,.27Z"/>
      </g>
      <g>
        <path class="cls-1" d="M65.69,84.78c-.14,.14-.3,.2-.51,.2-.79,.02-1.59-.03-2.36,.11-.83,.16-1.66,.2-2.49,.17,.36-.36,.82-.14,1.23-.2,.25-.04,.62,.11,.55-.4-.02-.13,.17-.22,.3-.25,.65-.18,1.16-.68,1.82-.84,.25-.06,.34-.32,.3-.54-.04-.22-.28-.12-.44-.14-.12-.01-.24-.01-.36-.02,.2-.07,.41-.22,.61-.21,1.62,.09,3.21-.31,4.83-.35,1.39-.03,2.79-.15,4.15-.35,1.79-.26,3.59-.12,5.37-.51,.88-.19,1.82-.06,2.75-.25,1.21-.24,2.48-.03,3.72-.31,.96-.22,1.96-.08,2.96-.22,1.36-.19,2.77-.1,4.15-.3,.64-.09,1.35,.1,1.96-.08,1.41-.42,2.88-.06,4.29-.47,.91-.27,1.92,.04,2.9-.22,.84-.22,1.77-.02,2.66-.22,.76-.16,1.55-.06,2.34-.21,1.11-.22,2.27-.04,3.42-.3,1.04-.23,2.15-.1,3.23-.21,1.45-.14,2.9-.23,4.33-.49,.83-.15,1.68-.26,2.51-.44,.58-.13,1.15-.27,1.73-.4,1.68-.38,3.36-.8,4.64-2.03,1.15-1.1,1.59-2.54,.92-4.04-.42-.94-1.04-1.73-1.75-2.5-.99-1.08-1.99-2.15-3-3.21-2.13-2.24-4.29-4.46-6.43-6.7-1.2-1.26-2.42-2.5-3.57-3.81-.91-1.04-1.93-1.97-2.89-2.98-1.42-1.49-2.83-2.98-4.22-4.49-.76-.83-1.6-1.57-2.27-2.48,.1-.04,.19-.08,.29-.11,.21-.08,.42-.18,.48-.42,.07-.29-.22-.3-.37-.42-.19-.16-.38-.31-.31-.6,.06-.21,.1-.42-.18-.49-.25-.06-.49-.03-.64,.2-.15,.23-.27,.48-.4,.72-.67-.66-1.28-1.39-1.93-2.07-2.13-2.23-4.22-4.5-6.32-6.76-.13-.14-.27-.21-.47-.26-.82-.21-1.65-.12-2.46-.1-.31,0-.67,.09-.91,.38-.58,.71-1.16,1.43-1.71,2.16-.59,.78-1.21,1.53-1.8,2.31-.55,.73-1.13,1.45-1.72,2.16-.6,.72-1.13,1.48-1.75,2.18-.06,.06-.14,.11-.18,.18-.56,.99-1.4,1.75-2.06,2.67-.8,1.11-1.69,2.17-2.55,3.23-.83,1.03-1.65,2.08-2.54,3.07-.42,.47-.88,.94-1.22,1.46-.61,.92-1.36,1.72-2.09,2.51-.93,1.02-1.98,1.94-3.02,2.86-.95,.84-1.95,1.64-2.74,2.69-1.02,1.37-2.45,2.27-4.17,2.62-.02-.7-.49-1.06-1.04-1.36-.1-.06-.25-.08-.2-.25,.03-.11,.15-.18,.25-.15,.63,.19,.88-.31,1.2-.67,0,0,.04,0,.04,0,.05-.03,.11-.06,.16-.1,1.11-.52,1.88-1.39,2.62-2.33,.36-.45,.72-.97,1.34-1.16,.11-.03,.2-.13,.28-.22,1.2-1.17,2.44-2.31,3.6-3.52,.81-.85,1.49-1.83,2.27-2.71,.42-.48,.77-1,1.18-1.49,.82-.97,1.63-1.96,2.42-2.95,.71-.9,1.43-1.8,2.15-2.7,.94-1.17,1.91-2.32,2.82-3.52,.89-1.18,1.87-2.29,2.78-3.45,.84-1.09,1.71-2.15,2.54-3.25,.52-.69,1.07-1.36,1.61-2.04,.36-.45,.86-.59,1.42-.74,1.03-.29,2.06-.21,3.07-.13,.8,.07,1.71,.05,2.35,.74,.83,.9,1.76,1.72,2.51,2.68,.48,.62,1.1,1.07,1.59,1.66,.99,1.2,2.15,2.25,3.17,3.41,1.62,1.85,3.37,3.57,5.06,5.36,1.67,1.77,3.34,3.54,5.03,5.28,1.59,1.64,3.13,3.34,4.7,5,2.46,2.6,4.94,5.18,7.46,7.72,1.03,1.05,2.05,2.11,3.01,3.22,.85,.97,1.62,2.08,1.92,3.37,.26,1.13,.34,2.33-.07,3.45-.4,1.09-1.01,2.08-1.97,2.82-1.07,.82-2.26,1.36-3.55,1.77-.82,.26-1.65,.48-2.48,.7-.83,.22-1.7,.31-2.55,.45-.92,.16-1.85,.31-2.77,.47-.07,.01-.13,.06-.19,.06-1.34,.05-2.67,.17-3.99,.32-1.19,.14-2.41,0-3.54,.27-1.04,.24-2.06,.05-3.07,.23-1.6,.29-3.25,.2-4.85,.45-.67,.1-1.32,.15-1.99,.16-.7,.02-1.4,.02-2.07,.29-.05,.02-.1,.03-.15,.02-1.39-.17-2.74,.22-4.12,.23-.82,0-1.63,.05-2.44,.25-.49,.12-1.03-.02-1.55,.02-1.52,.1-3.06,.16-4.56,.36-1.3,.18-2.61,.08-3.89,.35-1.08,.22-2.22,.02-3.28,.26-1.02,.24-2.05,.06-3.06,.3-.06,.02-.14-.01-.2-.02,.03-.06,.09-.15,.07-.18-.37-.51-.34-1.48-1.39-1.21-.09,.02-.21-.04-.29-.09-.29-.17-.6-.13-.91-.15-.31-.02-.45,.13-.34,.46,.05,.15,.26,.32,.07,.46-.2,.15-.4-.01-.56-.13-.12-.09-.23-.21-.3-.35-.19-.34-.48-.45-.85-.48-1.04-.08-2.01,.14-2.95,.56-.19,.09-.32,.22-.34,.42-.08,.76-.58,1.04-1.24,1.17-.13,.03-.29-.04-.39,.12,.63,.06,1.25,0,1.87-.05Z"/>
        <path class="cls-1" d="M62.51,62.84c-.32,.36-.57,.86-1.2,.67-.09-.03-.22,.04-.25,.15-.05,.16,.1,.19,.2,.25,.55,.29,1.02,.65,1.04,1.36-.63,.42-1.37,.59-2.06,.87-1.19,.49-2.4,.95-3.61,1.42-.73,.29-1.46,.58-2.21,.82-1.13,.37-2.22,.88-3.34,1.3-2.75,1.05-5.51,2.07-8.27,3.12-2.03,.77-4.05,1.58-6.08,2.36-4.19,1.62-8.37,3.24-12.56,4.87-1.53,.6-3.04,1.24-4.57,1.84-2.12,.83-4.24,1.64-6.36,2.46-1.37,.53-2.74,1.07-4.11,1.61-1.12,.44-2.24,.9-3.36,1.34,.55,.39,1.12,.02,1.69,.06,.5,.03,1.02,.09,1.5-.01,1.49-.32,3-.23,4.5-.43,1.2-.16,2.43-.18,3.65-.3,.13,.09,.28,.12,.44,.14,.72,.07,.73,.08,.5,.78-.13,.4,.15,.57,.39,.76,.16,.13,.39,.16,.51-.02,.18-.28,0-.52-.19-.74-.09-.1-.18-.22-.23-.34-.06-.16-.03-.36,.15-.38,.64-.08,1.27-.52,1.95-.13,.2,.12,.45,.1,.64-.04,.27-.2,.58-.2,.89-.2,.36,0,.76,.25,1.04-.18,.85,.05,1.72-.25,2.53,.22,.25,.15,.49,.17,.7-.06,.52-.55,.83-.56,1.42-.02,.17,.15,.35,.22,.57,.16,.35-.09,.72-.16,1.01-.39,.83-.66,1.72-.56,2.64-.24,.31,.11,.66,.18,.82-.16,.12-.26,.28-.25,.49-.26,.67-.02,1.35,.06,2.02-.07,.25-.04,.45,.03,.54,.29,.09,.26-.1,.37-.28,.48-.47,.3-.83,.67-.89,1.26-.31,.19-.64,.2-.99,.2-.69-.01-1.44-.16-2.06,.05-1.18,.39-2.39,0-3.52,.28-1.15,.28-2.31,.04-3.42,.26-1.2,.24-2.43,0-3.58,.28-1.1,.27-2.22-.05-3.29,.29-1.01,.32-2.09-.04-3.06,.26-1.28,.4-2.6,.03-3.87,.39-.78,.22-1.62,0-2.43,.09-.88,.1-1.77,.37-2.65,.18-.78-.18-1.6-.08-2.35-.37-.03-.01-.07-.02-.1-.02-.81,.08-1.58-.22-2.37-.3-.71-.07-.94-.23-1.09-.91-.08-.38,.32-1.09,.73-1.26,2.64-1.07,5.28-2.14,7.92-3.2,2.36-.94,4.72-1.86,7.09-2.78,2.27-.88,4.54-1.76,6.81-2.64,2.52-.98,5.03-1.97,7.55-2.95,1.99-.77,3.99-1.53,5.99-2.3,2.8-1.08,5.61-2.14,8.39-3.25,1.62-.65,3.27-1.25,4.89-1.88,2.94-1.14,5.88-2.26,8.81-3.4,1.43-.56,2.88-1.08,4.32-1.62Z"/>
        <path class="cls-1" d="M117.13,110.56c-.78,.88-1.63,1.7-2.55,2.43-.65,.52-1.27,1.08-1.94,1.55-1.37,.95-2.73,1.92-4.16,2.78-1.43,.86-2.88,1.65-4.39,2.35-2.04,.95-4.13,1.76-6.29,2.4-.71,.21-1.42,.48-2.13,.62-.76,.15-1.5,.38-2.26,.51-.49,.09-1.05,0-1.5,.32-.03,.02-.07,.03-.1,.03-.66-.06-1.28,.16-1.92,.23-2.63,.3-5.28,.27-7.92,.19-1.26-.03-2.53-.13-3.78-.38-.61-.12-1.25-.13-1.87-.25-.8-.16-1.61-.32-2.4-.51-.87-.2-1.73-.45-2.59-.7-1.74-.5-3.45-1.08-5.08-1.88,.03-.16-.42-.22-.12-.42,.33-.22,.52-.54,.71-.86,.15-.25,.35-.31,.64-.31,.39,0,.75,.24,1.15,.15,.79,.12,1.51,.46,2.25,.72,1.17,.41,2.35,.72,3.55,1.01,.93,.22,1.87,.39,2.81,.57,1.36,.26,2.74,.29,4.1,.47,1.81,.24,3.62,.19,5.41,.1,.95-.05,1.92-.07,2.86-.2,.97-.14,1.97-.21,2.91-.45,1.9-.48,3.83-.89,5.69-1.55,1.72-.61,3.43-1.24,5.07-2.02,1.85-.87,3.63-1.87,5.33-3.01,1.05-.7,2.08-1.44,3.08-2.21,.46-.36,.84-.83,1.33-1.11,1-.58,1.59-1.6,2.55-2.19,.95,.05,1.27,.79,1.66,1.47,0,0,0-.02,0-.02-.04,.06-.07,.11-.11,.17Z"/>
        <path class="cls-1" d="M93.6,116.12c-.08,.15-.25,.2-.38,.21-.99,.07-1.95,.33-2.92,.49-.78,.13-1.57,.09-2.33,.24-2.05,.38-4.12,.08-6.17,.19-.94-.44-1.98-.1-2.97-.39-.56-.16-1.22-.28-1.85-.26-.43,.01-.83-.18-1.23-.28-1.28-.31-2.56-.65-3.81-1.08-1.75-.6-3.45-1.3-5.1-2.12-1.39-.69-2.74-1.46-4.02-2.34-.78-.54-1.63-.98-2.31-1.67-.1-.1-.29,0-.35-.17,.33-.05,.42-.26,.37-.56-.05-.29-.27-.37-.53-.37-.27,0-.55,0-.8,.11-1.51-1.23-2.93-2.58-4.21-4.04-1.59-1.81-3.1-3.68-4.31-5.77-.21-.37-.45-.73-.67-1.1-.28-.46-.23-1.25,.1-1.58,.37-.37,1.08-.4,1.58-.1,.31,.19,.39,.53,.54,.79,.9,1.64,2.01,3.14,3.18,4.59,1.25,1.56,2.62,3.02,4.12,4.35,.53,.46,.99,1.02,1.56,1.4,.69,.47,1.32,1.03,2.02,1.47,1,.63,1.97,1.28,3,1.86,1.47,.83,2.98,1.59,4.54,2.22,1.39,.56,2.81,1.06,4.26,1.44,1.62,.42,3.25,.74,4.91,.99,.81,.12,1.62,.02,2.4,.17,1.12,.22,2.23,.14,3.35,.14,.94,0,1.9-.05,2.81-.19,1.03-.15,2.1-.14,3.1-.52,.28-.11,.64-.06,.96-.16,.26,.52,.59,.98,1.04,1.39-.98-.25-1.77-1.13-2.89-.78,.05,.21,.2,.34,.36,.48,.77,.67,1.58,1.23,2.69,.93Z"/>
        <path class="cls-1" d="M81.82,110.38c-1.13-.14-2.27-.19-3.38-.43-1.6-.35-3.2-.74-4.76-1.3-1.42-.51-2.81-1.07-4.13-1.77-.88-.46-1.71-1-2.56-1.51-1.21-.72-2.3-1.6-3.39-2.46-1.02-.8-1.97-1.73-2.84-2.71-1.15-1.29-2.27-2.61-3.21-4.05-.4-.62-.84-1.22-1.15-1.9-.27-.6-.12-1.28,.37-1.52,.62-.31,1.36-.07,1.7,.48,.92,1.49,1.96,2.89,3.08,4.24,1.06,1.28,2.22,2.45,3.48,3.51,1.36,1.15,2.8,2.19,4.36,3.08,1.67,.95,3.42,1.73,5.23,2.4,1.61,.59,3.28,.97,4.96,1.29,.92,.18,1.9,.11,2.8,.28,1.12,.22,2.25,.29,3.3,.1,1.01-.18,2.03-.06,3.04-.28,.7-.15,1.44-.24,2.14-.41,.38-.1,.76-.21,1.15-.19-.09,.2-.28,.22-.47,.27-.36,.09-.86,.1-1.05,.34-.49,.59-1.03,.5-1.64,.38-.13-.03-.27-.04-.41-.03-.14,0-.28,.06-.32,.22-.03,.13,.04,.24,.14,.31,.24,.16,.38,.35,.37,.68-.01,.29-.13,.48-.38,.64,.39,.13,.74-.08,1.07,.1-.05,.02-.09,.06-.14,.06-2.41,.23-4.83,.31-7.26,.2,.05-.04,.1-.1,.16-.13,.19-.11,.45-.21,.23-.49-.19-.23-.38-.16-.62,.02-.43,.33,.04,.4,.13,.59Zm-.76-1.2c.07-.81-.16-1.09-.72-.86-.4,.17-.69,1.3-.41,1.61,.03,.03,.09,.05,.14,.06,.57,.21,.94-.02,.97-.61,0-.07,.01-.14,.02-.21Zm5.51-.04c.39,0,.9-.37,.9-.64,0-.28-.23-.27-.42-.26-.4,.01-.73,.16-.8,.59-.05,.25,.16,.31,.33,.32Zm-1.63,.96c.56,.15,1.01,.13,1.38-.02-.47-.4-.89-.4-1.38,.02Zm-2.02,.12s0,.03,0,.04h1.52s0-.03,0-.04h-1.52Z"/>
        <path class="cls-1" d="M86.33,96.25c-.54-.11-1.04,.25-1.54,.19-1.19-.14-2.39-.15-3.58-.35-1.07-.18-2.11-.44-3.13-.8-1.49-.53-2.87-1.26-4.18-2.16-1.43-.98-2.66-2.15-3.82-3.41-.38-.41-.68-.86-.44-1.43,.46-1.12,1.71-.88,2.23-.2,.46,.61,1.02,1.12,1.57,1.64,.96,.9,2.05,1.64,3.2,2.28,1.45,.8,2.97,1.41,4.6,1.72,.63,.12,1.26,.34,1.93,.22,.53-.09,.97,.32,1.52,.24,2.48-.36,4.95-.69,7.16-2.02,.82-.49,1.61-1.01,2.38-1.59,1.6-1.21,2.86-2.7,3.9-4.4,.39-.64,1.05-.84,1.74-.56,.37,.14,.6,.91,.44,1.42-.1,.36-.35,.62-.54,.93-1.09,1.8-2.52,3.27-4.17,4.57-1.54,1.21-3.22,2.15-5.05,2.81-.9,.32-1.81,.56-2.76,.72-.49,.08-.95,.23-1.45,.18Z"/>
        <path class="cls-1" d="M68.64,118.81c-.4,.09-.76-.14-1.15-.15-.29,0-.49,.06-.64,.31-.2,.32-.39,.64-.71,.86-.3,.21,.15,.26,.12,.42-.93-.35-1.82-.76-2.69-1.24-1.1-.6-2.21-1.16-3.27-1.83-1.02-.65-2.03-1.3-3.03-1.98-.93-.64-1.76-1.39-2.65-2.06-1.58-1.18-2.91-2.63-4.3-4.01-.63-.62-1.23-1.32-1.78-2.04-.59-.77-1.24-1.5-1.83-2.27-.5-.66-.99-1.34-1.39-2.08,.18-.05,.41-.04,.53-.15,.33-.3,.7-.47,1.12-.58,.17-.05,.27-.2,.38-.33,.53,.59,.94,1.27,1.41,1.9,.49,.66,.99,1.3,1.53,1.91,1.18,1.35,2.36,2.72,3.69,3.93,1,.91,2.01,1.81,3.08,2.66,1.23,.97,2.51,1.87,3.83,2.71,1.87,1.19,3.82,2.23,5.84,3.13,.65,.29,1.29,.59,1.93,.89Z"/>
        <path class="cls-1" d="M89.52,103.01c-.06,.06-.12,.13-.22,.1-.37-.43-.81-.77-1.3-1.05-.51-.3-.51-.72,0-1.03,.04-.21,.22-.18,.37-.2,1.42-.21,2.81-.58,4.14-1.1,2.01-.78,3.86-1.83,5.61-3.1,2.06-1.5,3.74-3.34,5.19-5.41,.69-.98,1.31-2.02,1.76-3.14,.25-.61,.94-.97,1.56-.81,.58,.15,.92,.98,.65,1.61-.74,1.74-1.72,3.35-2.86,4.86-.75,1-1.56,1.95-2.48,2.79-.89,.81-1.78,1.63-2.77,2.31-2.15,1.48-4.42,2.74-6.94,3.49-.67,.2-1.35,.35-2.01,.58-.26-.11-.5-.12-.71,.1Z"/>
        <path class="cls-1" d="M81.82,103.3c-.82,.1-1.6-.11-2.39-.26-1.17-.22-2.31-.55-3.44-.95-1.4-.5-2.74-1.12-4.04-1.86-1.04-.59-2.01-1.28-2.96-2-1.22-.92-2.31-1.97-3.34-3.07-.94-1-1.71-2.14-2.49-3.26-.32-.46-.16-1.39,.25-1.65,.6-.37,1.57-.17,1.84,.46,.22,.51,.6,.87,.91,1.3,1.08,1.49,2.33,2.85,3.78,3.98,1.6,1.26,3.3,2.38,5.19,3.19,1.2,.51,2.42,.98,3.69,1.29,.69,.17,1.4,.29,2.1,.41,.99,.17,2,.16,2.98,.39-.07,.18-.19,.29-.39,.27-.57-.07-1.04,.11-1.56,.36-.45,.21-.55,.5-.64,.89-.1,.45,.41,.28,.52,.52Z"/>
        <path class="cls-1" d="M107.94,106.64c.03-.17,.15-.28,.28-.36,1.78-1.25,3.21-2.84,4.61-4.48,.95-1.11,1.82-2.28,2.64-3.48,.91-1.31,1.71-2.69,2.39-4.14,.41-.88,.79-1.78,1.19-2.67,.28-.62,.99-.9,1.58-.63,.6,.28,.79,.93,.55,1.58-.57,1.56-1.31,3.05-2.12,4.49-.7,1.26-1.48,2.49-2.35,3.66-.83,1.12-1.66,2.26-2.58,3.3-1,1.14-2.15,2.15-3.21,3.24-.45,.46-.99,.79-1.48,1.18,.07-.32,.11-.64,.21-.95,.09-.28,0-.45-.25-.59-.47-.26-.95-.4-1.47-.16Z"/>
        <path class="cls-1" d="M117.24,110.41c-.38-.68-.71-1.42-1.66-1.47,.38-.42,.74-.86,1.15-1.26,.92-.92,1.67-1.97,2.5-2.97,.67-.8,1.28-1.64,1.87-2.5,1.68-2.43,3.11-5,4.24-7.74,.12-.3,.23-.6,.31-.91,.24-.94,1.26-1.08,1.9-.8,.34,.14,.55,1.03,.39,1.45-1.02,2.66-2.28,5.2-3.78,7.62-1.01,1.62-2.12,3.18-3.35,4.65-.61,.73-1.25,1.45-1.85,2.18-.53,.64-1.11,1.2-1.72,1.74Z"/>
        <path class="cls-1" d="M107.94,106.64c.52-.24,1-.1,1.47,.16,.25,.14,.33,.31,.25,.59-.09,.31-.14,.63-.21,.95-.03,.03-.06,.06-.09,.09-.08,.06-.15,.11-.23,.17-1.77,1.53-3.75,2.74-5.79,3.87-2.03,1.12-4.16,2.03-6.36,2.77-.78,.26-1.55,.52-2.36,.69-.34,.07-.66,.24-1.03,.2-1.11,.31-1.91-.26-2.69-.93-.16-.14-.31-.27-.36-.48,1.13-.35,1.91,.53,2.89,.78-.44-.41-.78-.87-1.04-1.39,1.58-.4,3.14-.84,4.67-1.4,1.57-.57,3.08-1.26,4.56-2.01,1.32-.67,2.58-1.43,3.79-2.27,.85-.58,1.67-1.19,2.51-1.79Z"/>
        <path class="cls-1" d="M63.72,82.87c.12,0,.24,0,.36,.02,.16,.02,.4-.08,.44,.14,.04,.22-.05,.48-.3,.54-.66,.17-1.16,.66-1.82,.84-.13,.04-.32,.12-.3,.25,.07,.51-.3,.36-.55,.4-.41,.06-.87-.16-1.23,.2-.17,0-.35,0-.52,0-.37-.23-.77,.13-1.17-.07,.21-.18,.41-.34,.6-.51,.18-.15,.28-.31,.14-.54-.15-.24-.38-.24-.59-.12-.39,.22-.77,.46-1.24,.45-.06,0-.16,.06-.16,.11-.07,.69-.62,.79-1.14,.93-.03,0-.04,.05-.06,.08-.14,.28-.42,.2-.64,.21-.5,.02-1.03-.11-1.49,.03-1.18,.35-2.41,.04-3.6,.39-.69,.2-1.47,.08-2.21,.1-.15,0-.31,.03-.46,.05,0,0-.04,.02-.04,.02,0,0-.03,0-.03,0-.22-.03-.44-.07-.67-.09-.57-.05-.69-.31-.41-.83,.22-.42,.61-.55,.98-.77,1.2-.72,2.43-.75,3.72-.36,.2,.06,.39,.05,.54-.09,.53-.53,1.13-.51,1.77-.24,.27,.12,.49,.08,.7-.14,.14-.15,.32-.26,.48-.39,.69-.03,1.41,.07,2.05-.12,1.37-.4,2.79-.06,4.17-.43,.84-.22,1.78-.06,2.67-.08Z"/>
        <path class="cls-1" d="M54.83,83.5c-.16,.13-.34,.24-.48,.39-.21,.22-.43,.26-.7,.14-.63-.27-1.24-.29-1.77,.24-.15,.14-.34,.15-.54,.09-1.29-.39-2.52-.36-3.72,.36-.37,.22-.76,.34-.98,.77-.27,.52-.16,.79,.41,.83,.22,.02,.44,.06,.67,.09-.13,.13-.3,.14-.48,.15-.83,0-1.66,.02-2.48,.03,.15-.21,.42-.1,.61-.21-.29-.4-.07-.55,.29-.55,.41,0,.64-.17,.74-.56,.04-.16,.15-.31,.25-.45,.21-.32,.09-.45-.25-.44-.15,0-.31,.04-.46,.08-.56,.13-1.1,.51-1.7,.13-.05-.03-.14,0-.2-.01-.38-.01-.46,.14-.28,.47,.15,.29,.38,.53,.43,.88,.06,.39-.07,.6-.48,.62-.25,0-.51,0-.76,0,.46,.19,.96-.01,1.41,.23-.66,.15-1.34-.03-2,.1-1.46,.29-2.94,.28-4.42,.32,.14-.28,.4-.23,.63-.23,.62,0,1.25,0,1.87,0-.42,.02-.74-.41-1.13-.33-1.45,.31-1.45,.32-1.73-1.11-.09-.43-.43-.32-.71-.32-.16,0-.48,0-.38,.19,.27,.49-.26,1.34,.76,1.48-.33,.3-.67,.11-.95,.32h1.64c-.14,.23-.36,.21-.59,.21-.85,0-1.71-.05-2.56,.07,.05-.59,.41-.97,.89-1.26,.18-.11,.37-.22,.28-.48-.09-.26-.29-.33-.54-.29-.67,.12-1.35,.04-2.02,.07-.2,0-.36,0-.49,.26-.16,.34-.52,.27-.82,.16-.92-.31-1.81-.42-2.64,.24-.29,.23-.66,.3-1.01,.39-.22,.06-.4,0-.57-.16-.58-.54-.9-.53-1.42,.02-.22,.23-.45,.2-.7,.06-.81-.47-1.69-.17-2.53-.22-.28,.43-.68,.18-1.04,.18-.31,0-.62,0-.89,.2-.19,.14-.44,.16-.64,.04-.68-.39-1.3,.05-1.95,.13-.18,.02-.21,.22-.15,.38,.05,.12,.14,.24,.23,.34,.19,.22,.37,.46,.19,.74-.12,.18-.35,.15-.51,.02-.24-.19-.52-.36-.39-.76,.23-.7,.22-.71-.5-.78-.16-.02-.31-.05-.44-.14,.93-.08,1.87-.06,2.79-.28,1.02-.25,2.07,.05,3.12-.22,1-.25,2.06-.06,3.11-.26,1.13-.21,2.33,.05,3.47-.29,.24,.06,.48,.07,.71-.02,.35,0,.7,0,1.05,0,.21,.09,.41,.09,.62,0,.34-.09,.68-.23,1.03-.25,1.08-.05,2.15-.03,3.23-.22,1.08-.18,2.22,0,3.32-.28,.97-.24,1.98,.07,2.96-.23,1.16-.35,2.38-.06,3.57-.35,.98-.24,2.03-.08,3.06-.21,1.12-.15,2.27-.26,3.42-.26,.76,0,1.49-.22,2.25-.2Zm-15.84,2.01c-.02-.13-.08-.24-.22-.23-.17,.01-.2,.16-.21,.3,0,.13,.05,.25,.2,.23,.15-.02,.22-.14,.23-.3Z"/>
        <path class="cls-1" d="M109.04,99.21c-1.11,1.39-2.39,2.62-3.76,3.74-1.56,1.28-3.23,2.44-5,3.43-.28,.16-.58,.28-.88,.42-.11-.16-.25-.22-.44-.19-.11,.02-.26,.07-.31-.08-.04-.12,.1-.16,.17-.23,.31-.31,.28-.6,0-.94-.25-.29-.61-.27-.92-.39,1.38-.73,2.73-1.51,4-2.42,.83-.6,1.62-1.26,2.4-1.92,.81-.69,1.55-1.45,2.29-2.2,.05,.58-.04,1.08-.56,1.46-.28,.2-.17,.42,.15,.5,.41,.1,.85-.16,.96-.64,.09-.41,.38-.56,.67-.42,.46,.22,.84,.12,1.23-.12Z"/>
        <path class="cls-1" d="M97.9,104.96c.31,.12,.67,.1,.92,.39,.29,.33,.31,.63,0,.94-.07,.07-.21,.11-.17,.23,.05,.15,.2,.1,.31,.08,.19-.03,.34,.04,.44,.19,0,0-.03,0-.03,0,0,0,0-.03,0-.03-.05,.04-.1,.09-.14,.13,0,0-.02-.03-.02-.03-.06,.04-.11,.07-.17,.11-1.03,.64-2.16,1.04-3.28,1.47-1.53,.59-3.12,.99-4.71,1.37-.57,.14-1.16,.21-1.74,.31-.33-.18-.68,.03-1.07-.1,.24-.16,.36-.35,.38-.64,.01-.33-.13-.52-.37-.68-.1-.07-.18-.17-.14-.31,.04-.16,.18-.21,.32-.22,.13,0,.27,0,.41,.03,.6,.12,1.15,.21,1.64-.38,.2-.24,.69-.25,1.05-.34,.19-.05,.38-.06,.47-.27,.37-.34,.87-.3,1.3-.43,1.59-.49,3.1-1.15,4.6-1.85Z"/>
        <path class="cls-1" d="M108.29,96.46c.11-.38,.43-.61,.64-.92,1.27-1.84,2.44-3.75,3.25-5.85,.31-.81,1.02-1.11,1.81-.79,.38,.15,.68,1.08,.5,1.5-.74,1.65-1.5,3.29-2.49,4.81-.7,1.06-1.37,2.16-2.23,3.1-.14,.16-.11,.46-.41,.48-.06-.12-.1-.26-.19-.36-.33-.36-.24-.64,.13-.89,.07-.05,.15-.09,.2-.16,.2-.26,.42-.54,.2-.88-.18-.29-.82-.35-1.1-.13-.1,.08-.18,.15-.32,.08Z"/>
        <path class="cls-1" d="M65.69,84.78c-.62,.05-1.24,.11-1.87,.05,.1-.16,.27-.09,.39-.12,.66-.13,1.17-.42,1.24-1.17,.02-.2,.15-.33,.34-.42,.94-.42,1.91-.64,2.95-.56,.38,.03,.66,.14,.85,.48,.08,.13,.18,.26,.3,.35,.16,.12,.37,.28,.56,.13,.19-.14-.02-.31-.07-.46-.11-.32,.03-.47,.34-.46,.31,.02,.62-.03,.91,.15,.09,.05,.21,.11,.29,.09,1.05-.28,1.03,.7,1.39,1.21,.02,.03-.05,.12-.07,.18-1.46,.24-2.94,.21-4.41,.33-.43,0-.88,.08-1.28-.03-.67-.19-1.24,.1-1.84,.25h-.03Z"/>
        <path class="cls-1" d="M47.33,101.68c-.11,.13-.21,.28-.38,.33-.41,.12-.79,.29-1.12,.58-.12,.11-.35,.1-.53,.15-.67-.81-1.13-1.74-1.66-2.64-.21-.35-.4-.69-.39-1.12,.02-.47,.17-.83,.64-1,.5-.19,1.23-.05,1.44,.35,.6,1.16,1.37,2.21,2,3.35Z"/>
        <path class="cls-1" d="M108.29,96.46c.13,.07,.21,0,.32-.08,.28-.22,.92-.16,1.1,.13,.21,.34,0,.62-.2,.88-.05,.07-.13,.11-.2,.16-.37,.25-.46,.53-.13,.89,.09,.1,.12,.24,.19,.36,0,0,0-.02,0-.02-.04,.04-.08,.08-.11,.11,0,0,0-.01,0-.01-.04,.04-.07,.08-.11,.12,0,0,.02-.02,.02-.01-.04,.08-.08,.15-.12,.23h0c-.39,.24-.76,.33-1.23,.12-.3-.14-.58,.01-.67,.42-.11,.47-.55,.74-.96,.64-.32-.08-.44-.3-.15-.5,.52-.38,.62-.88,.56-1.46,0,0,0,0,0,0,1.11-.27,1.6-.84,1.48-1.74,.07-.08,.14-.15,.21-.23Z"/>
        <path class="cls-1" d="M88.01,101.02c-.52,.32-.51,.73,0,1.03,.49,.28,.93,.62,1.3,1.05-.65,.08-1.3,.29-1.97,.19,.25-.55,.15-1.08-.27-1.32-.66-.39-1.25-.37-1.49,.16-.22,.48-.56,.61-.99,.69-.19,.04-.42,.09-.37,.34,.04,.22,.28,.17,.44,.17,.83,0,1.66,0,2.48,.01-.08,.15-.21,.15-.35,.15-1.49,0-2.98,.01-4.47,.02-.15,0-.32,.04-.4-.15,.29-.13,.67,.11,.9-.09,.54-.45,1.3-.4,1.82-.95,.32-.34,.58-.59,.51-1.06,.95-.13,1.89-.31,2.86-.25Zm.4,2.02c-.12-.04-.16-.07-.2-.06-.05,0-.11,.02-.13,.06-.03,.06,.03,.08,.08,.08,.06,0,.11-.03,.25-.07Z"/>
        <path class="cls-1" d="M85.15,101.26c.06,.47-.19,.72-.51,1.06-.52,.55-1.28,.51-1.82,.95-.23,.19-.61-.05-.9,.09-.03-.02-.06-.04-.09-.06-.1-.24-.62-.07-.52-.52,.09-.39,.19-.68,.64-.89,.52-.24,.99-.43,1.56-.36,.2,.03,.32-.09,.39-.27,.1,0,.21,0,.31,0h.05s.05,0,.05,0c.17,0,.35,0,.52,0h.05s.05,0,.05,0h.21Z"/>
        <path class="cls-1" d="M44.35,86.74c-.44-.25-.95-.04-1.41-.23,.25,0,.51,0,.76,0,.4-.01,.54-.23,.48-.62-.05-.34-.28-.59-.43-.88-.18-.33-.09-.48,.28-.47,.07,0,.15-.02,.2,.01,.6,.37,1.14,0,1.7-.13,.15-.03,.3-.08,.46-.08,.33,0,.46,.13,.25,.44-.1,.14-.2,.29-.25,.45-.1,.4-.33,.56-.74,.56-.36,0-.58,.15-.29,.55-.19,.11-.46,0-.61,.21-.1,.13-.25,.17-.41,.17Z"/>
        <path class="cls-1" d="M87.14,103.34c-.83,0-1.66,0-2.48-.01-.16,0-.4,.05-.44-.17-.05-.25,.19-.3,.37-.34,.44-.08,.77-.21,.99-.69,.24-.54,.83-.55,1.49-.16,.41,.24,.52,.77,.27,1.32-.06,.02-.13,.03-.19,.05Z"/>
        <path class="cls-1" d="M56.18,85.6s.04-.07,.06-.08c.52-.14,1.07-.24,1.14-.93,0-.04,.11-.11,.16-.11,.47,0,.85-.23,1.24-.45,.21-.12,.44-.12,.59,.12,.14,.22,.04,.39-.14,.54-.19,.16-.39,.33-.6,.51,.4,.21,.81-.15,1.17,.07-1.19,.31-2.41,.31-3.63,.33Z"/>
        <path class="cls-1" d="M108.08,96.68c.12,.9-.36,1.47-1.48,1.74,.49-.58,.99-1.16,1.48-1.74Z"/>
        <path class="cls-1" d="M59.17,108.12c.26-.11,.53-.12,.8-.11,.26,0,.48,.08,.53,.37,.05,.3-.04,.51-.37,.56-.32-.27-.65-.55-.97-.82Z"/>
        <path class="cls-1" d="M65.72,84.77c.6-.16,1.17-.44,1.84-.25,.4,.11,.85,.03,1.28,.03-.19,.12-.38,.2-.62,.2-.84,0-1.67,.02-2.51,.03Z"/>
        <path class="cls-1" d="M81.82,110.38c-.09-.18-.56-.26-.13-.59,.23-.18,.43-.24,.62-.02,.23,.28-.04,.38-.23,.49-.06,.03-.1,.09-.16,.13-.04,0-.07-.01-.11-.02Z"/>
        <path class="cls-1" d="M89.52,103.01c.21-.23,.45-.21,.71-.1-.24,.03-.47,.07-.71,.1Z"/>
        <path class="cls-1" d="M109.13,108.6c.08-.06,.15-.11,.23-.17-.03,.11-.1,.18-.23,.17Z"/>
        <path class="cls-1" d="M109.04,99.21c.04-.08,.08-.15,.12-.23,.03,.12-.04,.17-.12,.23Z"/>
        <path class="cls-1" d="M62.72,62.74c-.05,.03-.11,.06-.16,.1,.04-.07,.08-.11,.16-.1Z"/>
        <path class="cls-1" d="M109.14,98.99s.07-.08,.11-.12c-.01,.06-.01,.13-.11,.12Z"/>
        <path class="cls-1" d="M84.94,101.27h-.05s-.05,0-.05,0c.03-.01,.07-.01,.1,0Z"/>
        <path class="cls-1" d="M84.32,101.27h-.05s-.05,0-.05,0c.03-.01,.07-.01,.1,0Z"/>
        <path class="cls-1" d="M99.24,106.9s.1-.09,.14-.13c0,.1-.07,.11-.14,.13Z"/>
        <path class="cls-1" d="M99.06,106.98c.06-.04,.11-.07,.17-.11-.02,.09-.09,.11-.17,.11Z"/>
        <path class="cls-1" d="M109.24,98.88s.08-.08,.11-.11c0,.07-.05,.11-.11,.11Z"/>
        <path class="cls-1" d="M47.75,86.39s.04-.02,.04-.02l-.04,.02Z"/>
        <path class="cls-1" d="M117.13,110.56c.04-.06,.07-.11,.11-.17-.04,.06-.07,.11-.11,.17Z"/>
        <path class="cls-1" d="M103.09,45.09c-.38-.37-.76-.75-1.13-1.12,.13-.24,.25-.49,.4-.72,.15-.23,.39-.27,.64-.2,.29,.07,.24,.28,.18,.49-.07,.28,.12,.44,.31,.6,.14,.12,.44,.12,.37,.42-.06,.24-.27,.34-.48,.42-.1,.04-.19,.08-.29,.11Z"/>
        <path class="cls-1" d="M81.07,109.18c0,.07-.01,.14-.02,.21-.04,.59-.4,.82-.97,.61-.05-.02-.11-.03-.14-.06-.28-.31,0-1.44,.41-1.61,.56-.23,.79,.05,.72,.86Z"/>
        <path class="cls-1" d="M86.58,109.13c-.16,0-.37-.07-.33-.32,.08-.43,.41-.57,.8-.59,.19,0,.41-.01,.42,.26,0,.27-.51,.65-.9,.64Z"/>
        <path class="cls-1" d="M84.95,110.09c.49-.42,.91-.42,1.38-.02-.37,.16-.83,.17-1.38,.02Z"/>
        <path class="cls-1" d="M82.93,110.22h1.52s0,.03,0,.04h-1.52s0-.03,0-.04Z"/>
        <path class="cls-1" d="M37.94,87.16h-1.64c.27-.21,.62-.02,.95-.32-1.02-.14-.49-.99-.76-1.48-.1-.18,.23-.19,.38-.19,.27,0,.62-.1,.71,.32,.29,1.43,.28,1.41,1.73,1.11,.39-.08,.71,.35,1.13,.33-.62,0-1.25,0-1.87,0-.23,0-.5-.05-.63,.23,0,0,0,0,0,0Z"/>
        <path class="cls-1" d="M38.99,85.51c0,.16-.07,.27-.23,.3-.16,.02-.21-.09-.2-.23,0-.14,.04-.29,.21-.3,.14-.01,.2,.1,.22,.23Z"/>
        <path class="cls-1" d="M29.61,85.53c.23-.07,.47-.05,.71-.02-.23,.09-.47,.08-.71,.02Z"/>
        <path class="cls-1" d="M31.36,85.51c.21,0,.41,0,.62,0-.2,.09-.41,.09-.62,0Z"/>
        <path class="cls-1" d="M88.4,103.04c-.13,.04-.19,.06-.25,.07-.05,0-.11-.01-.08-.08,.02-.03,.08-.05,.13-.06,.04,0,.08,.02,.2,.06Z"/>
      </g>
    </g>
  </g>
</svg>